<svg width="20" height="20" viewBox="0 0 20 20" fill="none" xmlns="http://www.w3.org/2000/svg">
<path d="M20 8.11724C20 3.64199 15.515 0 10 0C4.48502 0 0 3.64199 0 8.11724C0 12.1337 3.55806 15.4855 8.36143 16.1221C8.68914 16.197 9.12922 16.3375 9.24158 16.6183C9.34457 16.8711 9.30712 17.2644 9.26966 17.5265C9.26966 17.5265 9.14794 18.2287 9.12921 18.3785C9.0824 18.6313 8.93259 19.3709 10 18.9215C11.0674 18.4721 15.7584 15.5323 17.8558 13.1168C19.3071 11.5158 20 9.90547 20 8.11724Z" fill="#BE95CF"/>
<path d="M16.6759 10.7022C16.7789 10.7022 16.8632 10.618 16.8632 10.515V9.80345C16.8632 9.70046 16.7789 9.6162 16.6759 9.6162H14.7658V8.87656H16.6759C16.7789 8.87656 16.8632 8.7923 16.8632 8.68931V7.97777C16.8632 7.87478 16.7789 7.79052 16.6759 7.79052H14.7658V7.05089H16.6759C16.7789 7.05089 16.8632 6.96662 16.8632 6.86364V6.15209C16.8632 6.04911 16.7789 5.96484 16.6759 5.96484H13.867C13.764 5.96484 13.6797 6.04911 13.6797 6.15209V10.5056C13.6797 10.6086 13.764 10.6929 13.867 10.6929H16.6759V10.7022Z" fill="white"/>
<path d="M6.28239 10.7022C6.38538 10.7022 6.46965 10.618 6.46965 10.515V9.80345C6.46965 9.70046 6.38538 9.6162 6.28239 9.6162H4.37227V6.15209C4.37227 6.04911 4.288 5.96484 4.18501 5.96484H3.4734C3.3704 5.96484 3.28613 6.04911 3.28613 6.15209V10.515C3.28613 10.618 3.3704 10.7022 3.4734 10.7022H6.28239Z" fill="white"/>
<path d="M7.96822 5.95312H7.2566C7.15361 5.95312 7.06934 6.03739 7.06934 6.14037V10.5033C7.06934 10.6063 7.15361 10.6905 7.2566 10.6905H7.96822C8.07121 10.6905 8.15548 10.6063 8.15548 10.5033V6.14037C8.16485 6.03739 8.08058 5.95312 7.96822 5.95312Z" fill="white"/>
<path d="M12.799 5.95312H12.0874C11.9844 5.95312 11.9001 6.03739 11.9001 6.14037V8.73377L9.90571 6.03739C9.90571 6.02803 9.89635 6.02803 9.88699 6.01866L9.87762 6.0093L9.86826 5.99994C9.86826 5.99994 9.86826 5.99994 9.8589 5.99994C9.8589 5.99994 9.84953 5.99994 9.84953 5.99058C9.84953 5.99058 9.84953 5.99058 9.84017 5.99058C9.84017 5.99058 9.8308 5.99058 9.8308 5.98122C9.8308 5.98122 9.8308 5.98122 9.82144 5.98122H9.81208C9.81208 5.98122 9.81208 5.98122 9.80271 5.98122H9.79335C9.79335 5.98122 9.79335 5.98122 9.78399 5.98122H9.77462H9.76526H9.7559H9.74654C9.74654 5.98122 9.74653 5.98122 9.73717 5.98122H9.03492C8.93193 5.98122 8.84766 6.06548 8.84766 6.16847V10.5314C8.84766 10.6344 8.93193 10.7186 9.03492 10.7186H9.74654C9.84953 10.7186 9.9338 10.6344 9.9338 10.5314V7.93797L11.9375 10.6343C11.9469 10.6531 11.9656 10.6718 11.9844 10.6812L11.9937 10.6905C11.9937 10.6905 11.9937 10.6905 12.0031 10.6905H12.0125H12.0218C12.0218 10.6905 12.0218 10.6905 12.0312 10.6905H12.0405C12.0593 10.6905 12.0686 10.6999 12.0874 10.6999H12.7896C12.8926 10.6999 12.9769 10.6156 12.9769 10.5126V6.14974C12.9862 6.03739 12.902 5.95312 12.799 5.95312Z" fill="white"/>
</svg>
