<svg width="16" height="20" viewBox="0 0 16 20" fill="none" xmlns="http://www.w3.org/2000/svg">
<path d="M15.3366 16.3523C14.889 15.0204 13.1053 14.1866 11.8335 13.6277C11.3353 13.4095 9.956 13.0393 9.79022 12.412C9.73089 12.186 9.73889 11.9729 9.78755 11.7686C9.71089 11.7833 9.63311 11.792 9.55267 11.792H8.72402C8.06247 11.792 7.52493 11.2538 7.52493 10.5927C7.52493 9.93201 8.06269 9.39491 8.72402 9.39491H9.55267C9.82644 9.39491 10.086 9.48758 10.2953 9.65291C10.6022 9.61202 10.8982 9.54646 11.1742 9.46047C11.5366 8.70114 11.8193 7.79316 11.8826 7.01162C12.1531 3.66767 10.1031 1.71126 7.16382 2.04948C5.02675 2.29547 3.7501 3.889 3.6121 5.94052C3.47255 8.0316 4.24787 9.57602 5.07141 10.7089C5.43207 11.2042 5.81095 11.5227 5.75273 12.1195C5.68518 12.8253 4.93052 13.022 4.39076 13.2388C3.75121 13.4957 3.06233 13.8855 2.73701 14.0657C1.61636 14.6846 0.386379 15.4299 0.109939 16.4495C-0.502273 18.709 1.56525 19.3934 3.27211 19.7094C4.73697 19.9796 6.38872 20.001 7.74737 20.001C10.2049 20.001 14.6239 19.9025 15.3366 18.0552C15.5392 17.531 15.4523 16.6957 15.3366 16.3523Z" fill="white"/>
<path d="M10.0775 10.2538C9.96503 10.0825 9.77281 9.96872 9.55348 9.96872H8.72483C8.37906 9.96872 8.10017 10.248 8.10017 10.592C8.10017 10.9374 8.37906 11.2171 8.72483 11.2171H9.55348C9.79548 11.2171 10.0008 11.0791 10.1044 10.8796C11.2597 10.7887 12.2645 10.4358 12.9699 9.91472C13.1319 10.0192 13.3234 10.0803 13.5301 10.0803H13.5821C14.1581 10.0803 14.6238 9.61406 14.6238 9.0374V6.95566C14.6238 6.541 14.3807 6.18323 14.0301 6.01701C13.8772 2.67418 11.1099 0 7.72951 0C4.34912 0 1.58139 2.67418 1.42917 6.01701C1.07785 6.18345 0.834961 6.541 0.834961 6.95566V9.0374C0.834961 9.61406 1.30118 10.0803 1.87583 10.0803H1.9285C2.5036 10.0803 2.97004 9.61406 2.97004 9.0374V6.95566C2.97004 6.547 2.73382 6.19456 2.39049 6.02412C2.53915 3.2075 4.87645 0.962428 7.72951 0.962428C10.5815 0.962428 12.9199 3.2075 13.0679 6.02412C12.725 6.19478 12.489 6.547 12.489 6.95566V9.0374C12.489 9.17562 12.5159 9.30429 12.5632 9.42451C11.9561 9.85894 11.0723 10.1685 10.0775 10.2538Z" fill="white"/>
</svg>
