<svg width="102" height="102" viewBox="0 0 102 102" fill="none" xmlns="http://www.w3.org/2000/svg">
<path d="M81.52 81.5224C98.3778 64.6646 98.3778 37.3402 81.52 20.5047C64.6622 3.64688 37.3601 3.64688 20.5023 20.5047C3.6445 37.3625 3.6445 64.6869 20.5023 81.5224C37.3601 98.3802 64.6622 98.3802 81.52 81.5224Z" fill="url(#paint0_linear_443_4044)"/>
<path d="M15.6476 86.3552C35.1777 105.885 66.8446 105.885 86.3524 86.3552C105.883 66.8251 105.883 35.1582 86.3524 15.6281C66.8223 -3.87974 35.1777 -3.87974 15.6476 15.6504C-3.88253 35.1805 -3.88253 66.8473 15.6476 86.3552Z" stroke="url(#paint1_linear_443_4044)" stroke-width="1.84" stroke-miterlimit="10"/>
<g filter="url(#filter0_d_443_4044)">
<path d="M66.2433 36.5166H64.3726V24.7807C64.3726 20.9059 61.2104 17.7437 57.3356 17.7437H44.6644C40.7895 17.7437 37.6273 20.9059 37.6273 24.7807V36.5166H35.7567C33.1734 36.5166 31.0579 38.6099 31.0579 41.2154V67.9608C31.0579 70.544 33.1512 72.6596 35.7567 72.6596H66.2433C68.8265 72.6596 70.9421 70.5663 70.9421 67.9608V41.2154C70.9421 38.6322 68.8488 36.5166 66.2433 36.5166V36.5166ZM54.1733 55.2228V60.367C54.1733 61.9481 52.8817 63.2397 51.3006 63.2397H50.7216C49.1405 63.2397 47.8489 61.9481 47.8489 60.367V55.2228C45.8669 54.1093 44.5307 51.9937 44.5307 49.5664C44.5307 45.981 47.4257 43.086 51.0111 43.086C54.5964 43.086 57.4914 45.981 57.4914 49.5664C57.4914 51.9937 56.1553 54.1093 54.1733 55.2228V55.2228ZM59.6738 36.5166H42.3261V24.7807C42.3261 23.4891 43.3727 22.4425 44.6644 22.4425H57.3356C58.6272 22.4425 59.6738 23.4891 59.6738 24.7807V36.5166V36.5166Z" fill="white"/>
</g>
<defs>
<filter id="filter0_d_443_4044" x="29.2179" y="15.9037" width="47.2442" height="62.276" filterUnits="userSpaceOnUse" color-interpolation-filters="sRGB">
<feFlood flood-opacity="0" result="BackgroundImageFix"/>
<feColorMatrix in="SourceAlpha" type="matrix" values="0 0 0 0 0 0 0 0 0 0 0 0 0 0 0 0 0 0 127 0" result="hardAlpha"/>
<feOffset dx="1.84" dy="1.84"/>
<feGaussianBlur stdDeviation="1.84"/>
<feColorMatrix type="matrix" values="0 0 0 0 0.0156863 0 0 0 0 0 0 0 0 0 0 0 0 0 0.25 0"/>
<feBlend mode="normal" in2="BackgroundImageFix" result="effect1_dropShadow_443_4044"/>
<feBlend mode="normal" in="SourceGraphic" in2="effect1_dropShadow_443_4044" result="shape"/>
</filter>
<linearGradient id="paint0_linear_443_4044" x1="20.5021" y1="20.5013" x2="81.5207" y2="81.5199" gradientUnits="userSpaceOnUse">
<stop stop-color="#199297"/>
<stop offset="1" stop-color="#5DBFB3"/>
</linearGradient>
<linearGradient id="paint1_linear_443_4044" x1="87.8192" y1="14.217" x2="14.2032" y2="87.833" gradientUnits="userSpaceOnUse">
<stop stop-color="#199297"/>
<stop offset="1" stop-color="#5DBFB3"/>
</linearGradient>
</defs>
</svg>
