<svg width="100" height="100" viewBox="0 0 100 100" fill="none" xmlns="http://www.w3.org/2000/svg">
<path d="M20.6845 20.7059C4.49197 36.8984 4.49197 63.123 20.6845 79.3155C36.877 95.508 63.1016 95.508 79.2941 79.3155C95.4866 63.123 95.4866 36.877 79.2941 20.7059C63.1016 4.5134 36.877 4.5134 20.6845 20.7059Z" fill="url(#paint0_linear_443_4057)"/>
<path d="M16.0428 83.9571C34.8021 102.716 65.2192 102.716 83.9786 83.9571C102.738 65.1977 102.738 34.7806 83.9786 16.0212C65.2192 -2.73813 34.8021 -2.71674 16.0428 16.0426C-2.71657 34.802 -2.71657 65.1977 16.0428 83.9571Z" stroke="url(#paint1_linear_443_4057)" stroke-width="1.84" stroke-miterlimit="10"/>
<path d="M48.3209 22.31C34.8877 23.1228 23.1872 33.6255 22.2674 48.6843H30.6952C31.4225 48.6843 32.0214 49.2832 32.0214 50.0105C32.0214 50.7378 31.4225 51.3367 30.6952 51.3367H22.2674C23.123 65.7538 33.8182 76.8554 48.6631 77.7324V69.3046C48.6631 68.5773 49.262 67.9784 49.9893 67.9784C50.7166 67.9784 51.3155 68.5773 51.3155 69.3046V77.7324C66.1177 76.8554 76.8556 65.7966 77.7112 51.3367H69.2834C68.5562 51.3367 67.9572 50.7378 67.9572 50.0105C67.9572 49.2832 68.5562 48.6843 69.2834 48.6843H77.7326C76.8342 33.6255 65.1123 23.1014 51.6792 22.31H51.3369V30.7378C51.3369 31.465 50.738 32.064 50.0107 32.064C49.2834 32.064 48.6845 31.465 48.6845 30.7378V22.2886H48.3423L48.3209 22.31ZM57.0481 58.5666C57.4332 59.187 57.262 59.9998 56.6417 60.3848C56.0428 60.7699 55.1872 60.5773 54.8235 59.9784L48.877 50.7378C48.7487 50.5239 48.6631 50.2672 48.6631 50.0319V37.3688C48.6631 36.6415 49.262 36.0426 49.9893 36.0426C50.7166 36.0426 51.3155 36.6415 51.3155 37.3688V49.6469L57.0481 58.5666Z" fill="white"/>
<defs>
<linearGradient id="paint0_linear_443_4057" x1="79.3203" y1="79.3137" x2="20.7099" y2="20.7033" gradientUnits="userSpaceOnUse">
<stop stop-color="#E95E6F"/>
<stop offset="1" stop-color="#EFA7A7"/>
</linearGradient>
<linearGradient id="paint1_linear_443_4057" x1="4.54485e-06" y1="50.0105" x2="100" y2="50.0105" gradientUnits="userSpaceOnUse">
<stop stop-color="#E95E6F"/>
<stop offset="1" stop-color="#EFA7A7"/>
</linearGradient>
</defs>
</svg>
