<svg width="100" height="100" viewBox="0 0 100 100" fill="none" xmlns="http://www.w3.org/2000/svg">
<path d="M20.7059 20.7059C4.51338 36.8984 4.51338 63.123 20.7059 79.3155C36.8984 95.508 63.123 95.508 79.3155 79.3155C95.508 63.123 95.508 36.877 79.3155 20.7059C63.123 4.5134 36.8984 4.5134 20.7059 20.7059Z" fill="url(#paint0_linear_443_4036)"/>
<path d="M16.0428 83.9573C34.8021 102.717 65.2192 102.717 83.9786 83.9573C102.738 65.198 102.738 34.7809 83.9786 16.0215C65.2192 -2.71646 34.8021 -2.71646 16.0428 16.0429C-2.71657 34.8023 -2.71657 65.198 16.0428 83.9573Z" stroke="url(#paint1_linear_443_4036)" stroke-width="1.84" stroke-miterlimit="10"/>
<g filter="url(#filter0_d_443_4036)">
<path d="M74.5882 47.7222C74.5882 37.6045 63.7861 29.3906 50.4385 29.3906C37.0909 29.3906 26.2888 37.6045 26.2888 47.7222C26.2888 57.8398 37.0909 66.0537 50.4385 66.0537C53.369 66.0537 56.1711 65.6473 58.7808 64.92L64.1711 72.2997V62.781C70.4599 59.4655 74.5668 53.9468 74.5668 47.7008L74.5882 47.7222Z" fill="white"/>
</g>
<defs>
<filter id="filter0_d_443_4036" x="24.6188" y="27.7206" width="54.9795" height="49.5892" filterUnits="userSpaceOnUse" color-interpolation-filters="sRGB">
<feFlood flood-opacity="0" result="BackgroundImageFix"/>
<feColorMatrix in="SourceAlpha" type="matrix" values="0 0 0 0 0 0 0 0 0 0 0 0 0 0 0 0 0 0 127 0" result="hardAlpha"/>
<feOffset dx="1.67" dy="1.67"/>
<feGaussianBlur stdDeviation="1.67"/>
<feColorMatrix type="matrix" values="0 0 0 0 0.0156863 0 0 0 0 0 0 0 0 0 0 0 0 0 0.25 0"/>
<feBlend mode="normal" in2="BackgroundImageFix" result="effect1_dropShadow_443_4036"/>
<feBlend mode="normal" in="SourceGraphic" in2="effect1_dropShadow_443_4036" result="shape"/>
</filter>
<linearGradient id="paint0_linear_443_4036" x1="79.3007" y1="79.3049" x2="20.6902" y2="20.6945" gradientUnits="userSpaceOnUse">
<stop stop-color="#E95E6F"/>
<stop offset="1" stop-color="#EFA7A7"/>
</linearGradient>
<linearGradient id="paint1_linear_443_4036" x1="4.54485e-06" y1="50.0108" x2="100" y2="50.0108" gradientUnits="userSpaceOnUse">
<stop stop-color="#E95E6F"/>
<stop offset="1" stop-color="#EFA7A7"/>
</linearGradient>
</defs>
</svg>
