<svg width="30" height="25" viewBox="0 0 30 25" fill="none" xmlns="http://www.w3.org/2000/svg">
<path d="M28.2687 3.11872C27.1945 1.70746 25.6772 0.69821 23.9604 0.25311C22.2436 -0.191991 20.427 -0.047105 18.8025 0.664491C17.3485 1.29195 16.0517 2.34985 15 3.75374C13.9483 2.34641 12.6515 1.28852 11.1975 0.664491C9.57296 -0.047105 7.75639 -0.191991 6.03961 0.25311C4.32283 0.69821 2.80549 1.70746 1.73135 3.11872C0.598627 4.60293 0 6.45785 0 8.48234C0 11.3958 1.73753 14.5922 5.16384 17.9862C7.95584 20.7508 11.2551 23.0148 12.9728 24.118C13.578 24.5054 14.2815 24.7112 15 24.7112C15.7185 24.7112 16.422 24.5054 17.0272 24.118C18.7435 23.0148 22.0442 20.7508 24.8362 17.9862C28.2625 14.5936 30 11.3958 30 8.48234C30 6.45785 29.4014 4.60293 28.2687 3.11872Z" fill="#BE95CF"/>
</svg>
