<svg width="230" height="233" viewBox="0 0 230 233" fill="none" xmlns="http://www.w3.org/2000/svg">
<g clip-path="url(#clip0_443_4064)">
<path d="M211.015 78.6637C200.798 68.4401 187.993 62.3461 174.72 60.3817C173.693 45.2918 167.447 30.4922 155.914 18.9739C130.616 -6.3396 89.6352 -6.3396 64.3375 18.9739C56.5518 26.7643 51.1978 36.0281 48.2085 45.8722C37.5004 48.7072 27.3724 54.2877 18.9621 62.7032C-6.33567 88.0167 -6.33567 129.023 18.9621 154.336C29.1794 164.56 41.9844 170.654 55.2579 172.618C56.2841 187.708 62.5305 202.508 74.0639 214.048C99.3394 239.362 140.342 239.362 165.64 214.048C173.426 206.258 178.78 196.994 181.791 187.15C192.499 184.315 202.627 178.734 211.015 170.319C236.313 145.028 236.313 103.999 211.015 78.686V78.6637Z" fill="#DEF0F4"/>
<path style="mix-blend-mode:hard-light" d="M18.9622 154.336C-6.33561 129.023 -6.33561 88.0168 18.9622 62.7034C44.2376 37.3899 85.2405 37.3899 110.538 62.7034C132.378 84.5569 135.345 118.13 119.439 143.198L123.299 167.127L99.3841 163.265C74.354 179.159 40.7798 176.212 18.9399 154.359L18.9622 154.336Z" fill="url(#paint0_linear_443_4064)"/>
<path style="mix-blend-mode:hard-light" d="M64.3372 18.9739C89.6127 -6.3396 130.616 -6.3396 155.913 18.9739C181.211 44.265 181.211 85.2934 155.913 110.607C134.073 132.46 100.522 135.429 75.4692 119.513L51.5545 123.375L55.4139 99.4457C39.508 74.4001 42.475 40.8274 64.3149 18.9515L64.3372 18.9739Z" fill="url(#paint1_linear_443_4064)"/>
<path style="mix-blend-mode:hard-light" d="M211.015 78.6638C236.313 103.977 236.313 145.006 211.015 170.297C185.74 195.61 144.737 195.61 119.439 170.297C97.5991 148.443 94.6321 114.871 110.538 89.8026L106.679 65.8731L130.593 69.7349C155.623 53.8414 189.198 56.788 211.038 78.6415L211.015 78.6638Z" fill="url(#paint2_linear_443_4064)"/>
<path style="mix-blend-mode:hard-light" d="M165.64 214.026C140.342 239.34 99.3615 239.34 74.0637 214.026C48.766 188.713 48.766 147.707 74.0637 122.393C95.9037 100.54 129.478 97.5707 154.508 113.487L178.423 109.625L174.563 133.554C190.447 158.6 187.502 192.195 165.662 214.048L165.64 214.026Z" fill="url(#paint3_linear_443_4064)"/>
<g style="mix-blend-mode:screen">
<path d="M64.7614 54.3548C79.2172 54.3548 92.8031 59.98 103.02 70.2036C120.778 87.9944 123.923 116.277 110.471 137.461L108.307 140.876L108.954 144.872L110.471 154.247L101.102 152.729L97.1086 152.082L93.6954 154.247C85.0621 159.738 75.0233 162.64 64.7168 162.64C50.2609 162.64 36.6974 157.015 26.4801 146.791C16.2628 136.568 10.6188 122.973 10.6188 108.509C10.6188 94.0438 16.2405 80.4495 26.4801 70.2036C36.6974 59.98 50.2832 54.3548 64.7391 54.3548M64.7391 43.707C48.1639 43.707 31.5887 50.0242 18.9622 62.681C-6.33561 87.9944 -6.33561 129 18.9622 154.314C31.611 166.948 48.1639 173.288 64.7391 173.288C76.8079 173.288 88.8545 169.94 99.4064 163.243L123.321 167.105L119.462 143.175C135.345 118.13 132.401 84.5345 110.561 62.681C97.9117 50.0242 81.3366 43.707 64.7837 43.707H64.7391Z" fill="url(#paint4_linear_443_4064)"/>
</g>
<g style="mix-blend-mode:screen">
<path d="M110.137 10.6477C124.593 10.6477 138.178 16.2729 148.418 26.5189C158.635 36.7425 164.257 50.3367 164.257 64.8016C164.257 79.2664 158.635 92.8607 148.396 103.107C138.178 113.33 124.593 118.955 110.159 118.955C99.8526 118.955 89.8361 116.054 81.1804 110.562L77.7672 108.397L73.774 109.044L64.4044 110.562L65.9214 101.187L66.5684 97.1912L64.4044 93.7759C50.9525 72.5697 54.0756 44.2874 71.8555 26.5189C82.0727 16.2953 95.6586 10.6477 110.114 10.6477M110.114 0C93.5393 0 76.9641 6.31721 64.3375 18.9739C42.4976 40.8275 39.5305 74.4002 55.4365 99.4681L51.5771 123.398L75.4917 119.536C86.0436 126.233 98.1125 129.581 110.159 129.581C126.712 129.581 143.287 123.264 155.914 110.607C181.211 85.2934 181.211 44.2874 155.914 18.9739C143.287 6.31721 126.712 0 110.137 0L110.114 0Z" fill="url(#paint5_linear_443_4064)"/>
</g>
<g style="mix-blend-mode:screen">
<path d="M165.261 70.36C179.717 70.36 193.28 75.9852 203.498 86.2088C213.715 96.4324 219.359 110.027 219.359 124.492C219.359 138.956 213.737 152.551 203.498 162.774C193.28 172.998 179.694 178.645 165.239 178.645C150.783 178.645 137.197 173.02 126.98 162.774C109.222 145.006 106.077 116.723 119.529 95.5172L121.693 92.1019L121.046 88.1062L119.529 78.7309L128.898 80.2488L132.891 80.8961L136.305 78.7309C144.96 73.2396 154.977 70.3377 165.283 70.3377M165.283 59.6899C153.214 59.6899 141.168 63.0383 130.616 69.735L106.701 65.8732L110.561 89.8027C94.677 114.848 97.6217 148.443 119.462 170.297C132.111 182.954 148.686 189.271 165.239 189.271C181.791 189.271 198.389 182.954 211.016 170.297C236.313 145.006 236.313 103.977 211.016 78.6639C198.367 66.0072 181.814 59.6899 165.261 59.6899H165.283Z" fill="url(#paint6_linear_443_4064)"/>
</g>
<g style="mix-blend-mode:screen">
<path d="M119.841 114.067C130.147 114.067 140.164 116.969 148.82 122.46L152.233 124.625L156.226 123.978L165.596 122.46L164.079 131.835L163.432 135.831L165.596 139.246C179.048 160.453 175.902 188.735 158.145 206.503C147.927 216.727 134.341 222.375 119.863 222.375C105.385 222.375 91.8215 216.749 81.6043 206.503C71.387 196.28 65.7653 182.686 65.7653 168.221C65.7653 153.756 71.387 140.162 81.6043 129.938C91.8215 119.714 105.407 114.089 119.841 114.089M119.841 103.441C103.288 103.441 86.7129 109.759 74.0863 122.415C48.7885 147.729 48.7885 188.735 74.0863 214.048C86.7352 226.705 103.31 233.022 119.863 233.022C136.416 233.022 153.014 226.705 165.662 214.048C187.502 192.195 190.469 158.622 174.564 133.554L178.423 109.625L154.508 113.486C143.956 106.79 131.887 103.441 119.841 103.441V103.441Z" fill="url(#paint7_linear_443_4064)"/>
</g>
</g>
<defs>
<linearGradient id="paint0_linear_443_4064" x1="14.1212" y1="171.949" x2="315.74" y2="-129.461" gradientUnits="userSpaceOnUse">
<stop offset="0.04" stop-color="#1F4A92"/>
<stop offset="0.1" stop-color="#25488E"/>
<stop offset="0.2" stop-color="#394484"/>
<stop offset="0.32" stop-color="#593E73"/>
<stop offset="0.45" stop-color="#85345B"/>
<stop offset="0.59" stop-color="#BD293E"/>
<stop offset="0.6" stop-color="#C0293D"/>
<stop offset="1" stop-color="#D6E8B7"/>
</linearGradient>
<linearGradient id="paint1_linear_443_4064" x1="8.58845" y1="166.413" x2="310.185" y2="-135.019" gradientUnits="userSpaceOnUse">
<stop offset="0.04" stop-color="#1F4A92"/>
<stop offset="0.1" stop-color="#25488E"/>
<stop offset="0.2" stop-color="#394484"/>
<stop offset="0.32" stop-color="#593E73"/>
<stop offset="0.45" stop-color="#85345B"/>
<stop offset="0.59" stop-color="#BD293E"/>
<stop offset="0.6" stop-color="#C0293D"/>
<stop offset="1" stop-color="#D6E8B7"/>
</linearGradient>
<linearGradient id="paint2_linear_443_4064" x1="59.5855" y1="217.419" x2="361.182" y2="-83.9902" gradientUnits="userSpaceOnUse">
<stop offset="0.04" stop-color="#1F4A92"/>
<stop offset="0.1" stop-color="#25488E"/>
<stop offset="0.2" stop-color="#394484"/>
<stop offset="0.32" stop-color="#593E73"/>
<stop offset="0.45" stop-color="#85345B"/>
<stop offset="0.59" stop-color="#BD293E"/>
<stop offset="0.6" stop-color="#C0293D"/>
<stop offset="1" stop-color="#D6E8B7"/>
</linearGradient>
<linearGradient id="paint3_linear_443_4064" x1="65.118" y1="222.977" x2="366.737" y2="-78.4319" gradientUnits="userSpaceOnUse">
<stop offset="0.04" stop-color="#1F4A92"/>
<stop offset="0.1" stop-color="#25488E"/>
<stop offset="0.2" stop-color="#394484"/>
<stop offset="0.32" stop-color="#593E73"/>
<stop offset="0.45" stop-color="#85345B"/>
<stop offset="0.59" stop-color="#BD293E"/>
<stop offset="0.6" stop-color="#C0293D"/>
<stop offset="1" stop-color="#D6E8B7"/>
</linearGradient>
<linearGradient id="paint4_linear_443_4064" x1="-1.52144e-05" y1="108.509" x2="129.5" y2="108.509" gradientUnits="userSpaceOnUse">
<stop offset="0.04" stop-color="#1F4A92"/>
<stop offset="0.1" stop-color="#25488E"/>
<stop offset="0.2" stop-color="#394484"/>
<stop offset="0.32" stop-color="#593E73"/>
<stop offset="0.45" stop-color="#85345B"/>
<stop offset="0.59" stop-color="#BD293E"/>
<stop offset="0.6" stop-color="#C0293D"/>
<stop offset="1" stop-color="#D6E8B7"/>
</linearGradient>
<linearGradient id="paint5_linear_443_4064" x1="51.5771" y1="123.398" x2="155.978" y2="19.0387" gradientUnits="userSpaceOnUse">
<stop offset="0.04" stop-color="#1F4A92"/>
<stop offset="0.1" stop-color="#25488E"/>
<stop offset="0.2" stop-color="#394484"/>
<stop offset="0.32" stop-color="#593E73"/>
<stop offset="0.45" stop-color="#85345B"/>
<stop offset="0.59" stop-color="#BD293E"/>
<stop offset="0.6" stop-color="#C0293D"/>
<stop offset="1" stop-color="#D6E8B7"/>
</linearGradient>
<linearGradient id="paint6_linear_443_4064" x1="113.059" y1="163.913" x2="204.692" y2="72.3366" gradientUnits="userSpaceOnUse">
<stop offset="0.04" stop-color="#1F4A92"/>
<stop offset="0.1" stop-color="#25488E"/>
<stop offset="0.2" stop-color="#394484"/>
<stop offset="0.32" stop-color="#593E73"/>
<stop offset="0.45" stop-color="#85345B"/>
<stop offset="0.59" stop-color="#BD293E"/>
<stop offset="0.6" stop-color="#C0293D"/>
<stop offset="1" stop-color="#D6E8B7"/>
</linearGradient>
<linearGradient id="paint7_linear_443_4064" x1="55.1018" y1="168.221" x2="184.602" y2="168.221" gradientUnits="userSpaceOnUse">
<stop offset="0.04" stop-color="#1F4A92"/>
<stop offset="0.1" stop-color="#25488E"/>
<stop offset="0.2" stop-color="#394484"/>
<stop offset="0.32" stop-color="#593E73"/>
<stop offset="0.45" stop-color="#85345B"/>
<stop offset="0.59" stop-color="#BD293E"/>
<stop offset="0.6" stop-color="#C0293D"/>
<stop offset="1" stop-color="#D6E8B7"/>
</linearGradient>
<clipPath id="clip0_443_4064">
<rect width="230" height="233" fill="white"/>
</clipPath>
</defs>
</svg>
