<svg xmlns="http://www.w3.org/2000/svg" width="20" height="17" viewBox="0 0 20 17">
  <defs>
    <style>
      .cls-1 {
        fill: #5d6386;
        fill-rule: evenodd;
      }
    </style>
  </defs>
  <path id="形狀_1" data-name="形狀 1" class="cls-1" d="M10,0.718A14.159,14.159,0,0,0,.241,4.6a0.842,0.842,0,0,0,0,1.181L2.307,7.846a0.846,0.846,0,0,0,1.175.008A9.52,9.52,0,0,1,5.7,6.316a0.828,0.828,0,0,0,.467-0.749V2.989A12.172,12.172,0,0,1,10,2.382a12.435,12.435,0,0,1,3.825.6V5.559a0.838,0.838,0,0,0,.467.749,10.214,10.214,0,0,1,2.225,1.539,0.809,0.809,0,0,0,.567.233,0.843,0.843,0,0,0,.608-0.241l2.067-2.063A0.828,0.828,0,0,0,20,5.185a0.816,0.816,0,0,0-.25-0.582A14.154,14.154,0,0,0,10,.718ZM7.5,4.045v2.5s-5,4.159-5,6.654v3.327h15V13.194c0-2.5-5-6.654-5-6.654v-2.5H10.833V5.709H9.166V4.045H7.5ZM10,8.2a3.33,3.33,0,1,1-2.357.974A3.337,3.337,0,0,1,10,8.2Zm0,1.248a2.081,2.081,0,1,0,1.473.609A2.086,2.086,0,0,0,10,9.452Z"/>
</svg>
