<svg width="18" height="14" viewBox="0 0 18 14" fill="none" xmlns="http://www.w3.org/2000/svg">
<path d="M17.2 11.3684C17.2 12.6316 16.3 13.5789 15.1 13.5789H2.1C0.9 13.5789 0 12.6316 0 11.3684V2.21053C0 0.947368 0.9 0 2.1 0H15.1C16.3 0 17.2 0.947368 17.2 2.21053V11.3684Z" fill="#DD96B4"/>
<path d="M0.0999756 4.31575V2.21049C0.0999756 1.05259 0.999975 0.105225 2.09998 0.105225H15.1C16.2 0.105225 17.1 1.05259 17.1 2.21049V4.31575L17 2.10522C16.9 0.94733 16.1 0.421014 15.2 0.421014H2.19998C1.29998 0.421014 0.499976 1.15786 0.399976 2.21049L0.0999756 4.31575Z" fill="#DD96B4"/>
<path d="M15.1 13.4737H2.09998C0.999975 13.4737 0.0999756 12.5263 0.0999756 11.3684V10.7368C0.0999756 10.7368 0.199976 11.4737 0.199976 11.6842C0.399976 12.7368 1.09998 13.2631 1.99998 13.2631H15C15.9 13.2631 16.7 12.5263 16.9 11.5789L17 10.421V11.4737C17.1 12.5263 16.2 13.4737 15.1 13.4737Z" fill="#DD96B4"/>
<path d="M16 12.6316C14.8 11.1579 13 8.94739 10.8 7.15791L10.6 7.05265L10.4 7.15791C9.60001 7.89476 8.90001 8.42107 8.60001 8.6316C8.30001 8.42107 7.60001 7.89476 6.80001 7.26318L6.60001 7.15791L6.40001 7.26318C4.20001 9.05265 2.40001 11.1579 1.20001 12.6316C2.40001 10.4211 4.30001 8.52634 5.80001 7.15791L6.20001 6.84212L5.90001 6.52633C4.30001 5.15791 2.40001 3.15791 1.20001 0.947388C2.70001 2.94739 5.40001 5.89476 8.50001 7.78949L8.60001 7.89476L8.70001 7.78949C11.8 5.89476 14.4 2.84212 15.9 0.947388C14.7 3.15791 12.8 5.05265 11.3 6.42107L11 6.84212L11.4 7.15791C12.9 8.52634 14.8 10.4211 16 12.6316Z" fill="white"/>
</svg>
