<svg width="20" height="17" viewBox="0 0 20 17" fill="none" xmlns="http://www.w3.org/2000/svg">
<path d="M10 0.5C6.21667 0.5 2.78333 1.98333 0.241667 4.39167C0.0916667 4.54167 0 4.75 0 4.98333C0 5.21667 0.0916667 5.425 0.241667 5.575L2.30833 7.64167C2.45833 7.79167 2.66667 7.88333 2.91667 7.88333C3.125 7.88333 3.33333 7.79167 3.48333 7.65C4.14167 7.03333 4.89167 6.51667 5.7 6.10833C5.975 5.975 6.16667 5.69167 6.16667 5.35833V2.775C7.375 2.375 8.65833 2.16667 10 2.16667C11.325 2.16667 12.6167 2.375 13.825 2.76667V5.35C13.825 5.675 14.0167 5.96667 14.2917 6.1C15.1083 6.50833 15.8333 7.03333 16.5167 7.64167C16.6667 7.79167 16.875 7.875 17.0833 7.875C17.3333 7.875 17.5417 7.78333 17.6917 7.63333L19.7583 5.56667C19.9083 5.41667 20 5.20833 20 4.975C20 4.74167 19.9 4.54167 19.75 4.39167C17.2083 1.98333 13.775 0.5 10 0.5ZM7.5 3.83333V6.33333C7.5 6.33333 2.5 10.5 2.5 13V16.3333H17.5V13C17.5 10.5 12.5 6.33333 12.5 6.33333V3.83333H10.8333V5.5H9.16667V3.83333H7.5ZM10 8C10.8841 8 11.7319 8.35119 12.357 8.97631C12.9821 9.60143 13.3333 10.4493 13.3333 11.3333C13.3333 12.2174 12.9821 13.0652 12.357 13.6904C11.7319 14.3155 10.8841 14.6667 10 14.6667C9.11594 14.6667 8.2681 14.3155 7.64298 13.6904C7.01786 13.0652 6.66667 12.2174 6.66667 11.3333C6.66667 10.4493 7.01786 9.60143 7.64298 8.97631C8.2681 8.35119 9.11594 8 10 8ZM10 9.25C9.44746 9.25 8.91756 9.46949 8.52686 9.86019C8.13616 10.2509 7.91667 10.7808 7.91667 11.3333C7.91667 11.8859 8.13616 12.4158 8.52686 12.8065C8.91756 13.1972 9.44746 13.4167 10 13.4167C10.5525 13.4167 11.0824 13.1972 11.4731 12.8065C11.8638 12.4158 12.0833 11.8859 12.0833 11.3333C12.0833 10.7808 11.8638 10.2509 11.4731 9.86019C11.0824 9.46949 10.5525 9.25 10 9.25Z" fill="#DD96B4"/>
</svg>
