<svg xmlns="http://www.w3.org/2000/svg" width="25.002" height="25.002" viewBox="0 0 104 104">
  <defs>
    <style>
      .cls-1 {
        fill: #ff4fa0;
        fill-rule: evenodd;
      }
    </style>
  </defs>
  <path id="形狀_1" data-name="形狀 1" class="cls-1" d="M78.5,0.5h-52a26,26,0,0,0-26,26v52a26,26,0,0,0,26,26h52a26,26,0,0,0,26-26v-52A26,26,0,0,0,78.5.5ZM55.011,36.845a15.6,15.6,0,1,0,8.743,4.4A15.6,15.6,0,0,0,55.011,36.845ZM40.748,29.2A26,26,0,1,1,29.5,40.587,26,26,0,0,1,40.748,29.2ZM81.1,18.7a5.2,5.2,0,0,0,0,10.4h0.052a5.2,5.2,0,1,0,0-10.4H81.1Z"/>
</svg>
