<svg xmlns="http://www.w3.org/2000/svg" width="20" height="15" viewBox="0 0 20 15">
  <defs>
    <style>
      .cls-1 {
        fill: #5d6386;
        fill-rule: evenodd;
      }
    </style>
  </defs>
  <path id="形狀_1" data-name="形狀 1" class="cls-1" d="M19.733,12.6A2.316,2.316,0,0,1,17.389,15H2.879A2.316,2.316,0,0,1,.535,12.6V2.66A2.316,2.316,0,0,1,2.879.261h14.51a2.316,2.316,0,0,1,2.344,2.4V12.6ZM0.647,4.945V2.66A2.266,2.266,0,0,1,2.879.375h14.51A2.266,2.266,0,0,1,19.621,2.66V4.945l-0.112-2.4A1.891,1.891,0,0,0,17.5.718H2.99A2.073,2.073,0,0,0,.981,2.66Zm16.742,9.939H2.879A2.266,2.266,0,0,1,.647,12.6V11.914s0.112,0.8.112,1.028a1.945,1.945,0,0,0,2.009,1.714h14.51A2.268,2.268,0,0,0,19.4,12.828l0.112-1.257v1.143A2.076,2.076,0,0,1,17.389,14.885Zm1-.914a40.9,40.9,0,0,0-5.8-5.941l-0.223-.114-0.223.114a20.959,20.959,0,0,1-2.009,1.6C9.8,9.4,9.018,8.829,8.125,8.144L7.9,8.03l-0.223.114a40.818,40.818,0,0,0-5.8,5.826A24.262,24.262,0,0,1,7.009,8.03l0.446-.343L7.12,7.344A23,23,0,0,1,1.874,1.289a31.487,31.487,0,0,0,8.148,7.426l0.112,0.114,0.112-.114a32.893,32.893,0,0,0,8.036-7.426A24.261,24.261,0,0,1,13.147,7.23l-0.335.457L13.259,8.03A24.263,24.263,0,0,1,18.393,13.971Z"/>
</svg>
