<svg width="18" height="18" viewBox="0 0 18 18" fill="none" xmlns="http://www.w3.org/2000/svg">
<path fill-rule="evenodd" clip-rule="evenodd" d="M13.5 0H4.5C2.01472 0 0 2.01472 0 4.5V13.5C0 15.9853 2.01472 18 4.5 18H13.5C15.9853 18 18 15.9853 18 13.5V4.5C18 2.01472 15.9853 0 13.5 0ZM9.43462 6.29046C8.87286 6.20716 8.29913 6.30312 7.79504 6.56468C7.29095 6.82624 6.88217 7.24009 6.62684 7.74737C6.37152 8.25464 6.28265 8.82951 6.37287 9.39021C6.46309 9.9509 6.72782 10.4689 7.12939 10.8704C7.53096 11.272 8.04893 11.5367 8.60963 11.627C9.17033 11.7172 9.7452 11.6283 10.2525 11.373C10.7597 11.1177 11.1736 10.7089 11.4352 10.2048C11.6967 9.70071 11.7927 9.12698 11.7094 8.56522C11.6244 7.99219 11.3574 7.46169 10.9478 7.05207C10.5381 6.64245 10.0076 6.37544 9.43462 6.29046ZM6.96601 4.96696C7.80616 4.53102 8.76238 4.3711 9.69866 4.50993C10.6537 4.65155 11.5379 5.09658 12.2206 5.77928C12.9033 6.46198 13.3483 7.34615 13.4899 8.30118C13.6287 9.23746 13.4688 10.1937 13.0329 11.0338C12.5969 11.874 11.9072 12.5553 11.0617 12.9808C10.2163 13.4064 9.25816 13.5545 8.32366 13.4041C7.38917 13.2537 6.52589 12.8125 5.8566 12.1432C5.18731 11.474 4.7461 10.6107 4.59573 9.67618C4.44536 8.74168 4.59348 7.78356 5.01902 6.93811C5.44457 6.09264 6.12586 5.40289 6.96601 4.96696ZM13.9494 3.15008C13.4523 3.15008 13.0494 3.55302 13.0494 4.05008C13.0494 4.54713 13.4523 4.95008 13.9494 4.95008H13.9584C14.4554 4.95008 14.8584 4.54713 14.8584 4.05008C14.8584 3.55302 14.4554 3.15008 13.9584 3.15008H13.9494Z" fill="#DD96B4"/>
</svg>
