<svg width="179" height="178" viewBox="0 0 179 178" fill="none" xmlns="http://www.w3.org/2000/svg">
<path d="M178.016 89C178.016 138.173 138.185 178 89.0081 178C39.8311 178 0 138.173 0 89C0 39.8275 39.8311 0 89.0081 0C138.185 0 178.016 39.8275 178.016 89Z" fill="#14BB00"/>
<path d="M148.366 83.8262C148.366 57.2375 121.719 35.5994 88.9527 35.5994C56.1866 35.5994 29.5398 57.2375 29.5398 83.8262C29.5398 107.689 50.6792 127.603 79.2174 131.386C81.1645 131.831 83.7791 132.665 84.4467 134.334C85.0586 135.836 84.8361 138.172 84.6135 139.729C84.6135 139.729 83.8903 143.901 83.7791 144.791C83.5009 146.293 82.6109 150.687 88.9527 148.017C95.2945 145.347 123.165 127.881 135.626 113.53C144.249 104.018 148.366 94.4506 148.366 83.8262Z" fill="white"/>
<path d="M128.617 99.1794C129.229 99.1794 129.73 98.6788 129.73 98.0669V93.8395C129.73 93.2276 129.229 92.727 128.617 92.727H117.269V88.3326H128.617C129.229 88.3326 129.73 87.8319 129.73 87.2201V82.9926C129.73 82.3807 129.229 81.8801 128.617 81.8801H117.269V77.4857H128.617C129.229 77.4857 129.73 76.9851 129.73 76.3732V72.1457C129.73 71.5338 129.229 71.0332 128.617 71.0332H111.928C111.316 71.0332 110.815 71.5338 110.815 72.1457V98.0113C110.815 98.6232 111.316 99.1238 111.928 99.1238H128.617V99.1794Z" fill="#14BB00"/>
<path d="M66.8681 99.1794C67.48 99.1794 67.9807 98.6788 67.9807 98.0669V93.8395C67.9807 93.2276 67.48 92.727 66.8681 92.727H55.5195V72.1457C55.5195 71.5338 55.0189 71.0332 54.4069 71.0332H50.1791C49.5671 71.0332 49.0665 71.5338 49.0665 72.1457V98.0669C49.0665 98.6788 49.5671 99.1794 50.1791 99.1794H66.8681Z" fill="#14BB00"/>
<path d="M76.8818 70.9771H72.6539C72.0419 70.9771 71.5413 71.4777 71.5413 72.0896V98.0108C71.5413 98.6227 72.0419 99.1233 72.6539 99.1233H76.8818C77.4937 99.1233 77.9944 98.6227 77.9944 98.0108V72.0896C78.05 71.4777 77.5493 70.9771 76.8818 70.9771Z" fill="#14BB00"/>
<path d="M105.585 70.9771H101.357C100.745 70.9771 100.244 71.4777 100.244 72.0896V87.4977L88.395 71.4777C88.395 71.4221 88.3394 71.4221 88.2838 71.3664L88.2281 71.3108L88.1725 71.2552C88.1725 71.2552 88.1725 71.2552 88.1169 71.2552C88.1169 71.2552 88.0612 71.2552 88.0612 71.1996C88.0612 71.1996 88.0613 71.1996 88.0056 71.1996C88.0056 71.1996 87.95 71.1996 87.95 71.144C87.95 71.144 87.95 71.144 87.8944 71.144H87.8387C87.8387 71.144 87.8387 71.144 87.7831 71.144H87.7275C87.7275 71.144 87.7275 71.144 87.6718 71.144H87.6162H87.5606H87.5049H87.4493C87.4493 71.144 87.4493 71.144 87.3937 71.144H83.2214C82.6095 71.144 82.1088 71.6446 82.1088 72.2565V98.1777C82.1088 98.7896 82.6095 99.2902 83.2214 99.2902H87.4493C88.0613 99.2902 88.5619 98.7896 88.5619 98.1777V82.7696L100.467 98.7896C100.522 98.9008 100.634 99.0121 100.745 99.0677L100.801 99.1233C100.801 99.1233 100.801 99.1233 100.856 99.1233H100.912H100.967C100.967 99.1233 100.967 99.1233 101.023 99.1233H101.079C101.19 99.1233 101.246 99.1789 101.357 99.1789H105.529C106.141 99.1789 106.642 98.6783 106.642 98.0664V72.1452C106.697 71.4777 106.197 70.9771 105.585 70.9771Z" fill="#14BB00"/>
</svg>
