<svg width="181" height="50" viewBox="0 0 181 50" fill="none" xmlns="http://www.w3.org/2000/svg">
<g clip-path="url(#clip0_77_412)">
<path d="M10.9529 21.0843C10.9529 19.8795 10.0882 18.6747 8.3588 17.4699C8.3588 17.4699 8.21468 17.6205 8.07057 17.6205C8.64703 18.5241 8.93527 19.4277 9.07939 20.4819C9.07939 20.7831 9.07939 21.0843 9.07939 21.3855C9.07939 21.5361 9.07939 21.6867 9.07939 21.8374C9.07939 22.4398 9.36762 22.8916 9.94409 22.8916C10.5206 22.5904 10.9529 22.1386 10.9529 21.0843Z" fill="#896BA5"/>
<path d="M5.90881 17.7711C5.90881 18.0723 5.90881 18.3735 6.05292 18.8253C6.05292 19.7289 6.05292 20.4819 5.90881 20.9337C5.62057 21.6867 5.47646 22.2892 5.47646 22.4398C5.47646 23.0422 5.76469 23.3434 6.19704 23.3434C7.06175 23.3434 7.4941 22.741 7.4941 21.5361C7.4941 20.3313 7.06175 18.9759 6.34116 17.4699C6.05292 17.6205 5.90881 17.7711 5.90881 17.7711Z" fill="#896BA5"/>
<path d="M24.7882 24.8494C24.6441 25 24.4999 25.1506 24.4999 25.1506C25.5088 26.2048 26.2293 27.5602 26.6617 29.3675C26.9499 30.8735 27.5264 31.6265 28.247 31.6265C28.6793 31.6265 28.9676 31.4759 29.2558 31.3253C29.6882 31.0241 29.8323 30.5723 29.8323 29.8193C29.544 28.3133 27.9587 26.6566 24.7882 24.8494Z" fill="#896BA5"/>
<path d="M23.347 29.9699C22.9146 29.8193 22.6264 29.6687 22.6264 29.3675V26.2048C22.6264 26.2048 22.3382 26.2048 22.0499 26.2048C21.6176 27.8614 21.3294 29.0663 21.0411 29.5181C20.6088 30.2711 19.8882 30.5723 18.8794 30.5723H13.4029C12.3941 30.4217 11.9617 29.9699 11.9617 29.0663V26.0542C12.9706 25.753 13.547 25.3012 13.547 25C13.547 24.6988 12.1058 24.247 9.2235 23.7952C9.36762 24.3976 9.36762 25.4518 9.36762 26.9578V28.4639C9.36762 31.1747 10.2323 32.6807 11.8176 32.8313C12.5382 32.9819 14.4117 32.9819 17.2941 32.9819C18.7352 32.9819 20.0323 32.9819 21.4735 32.6807C23.2029 32.3795 24.0676 31.7771 24.0676 30.7229C24.0676 30.5723 23.7793 30.2711 23.347 29.9699Z" fill="#896BA5"/>
<path d="M6.34116 24.6988C6.05292 25.9036 5.62057 26.9578 5.0441 27.5602C4.1794 28.6145 3.45881 29.2169 2.88234 29.5181C2.30588 29.9699 2.01764 30.5723 2.01764 31.0241C2.01764 31.6265 2.44999 31.9277 3.3147 31.9277C5.62057 31.7771 6.77351 30.2711 6.77351 27.1084C6.77351 26.0542 6.77351 25.3012 6.77351 24.8494C6.77351 24.6988 6.62939 24.6988 6.34116 24.6988Z" fill="#896BA5"/>
<path d="M27.2382 17.3193C27.2382 17.3193 27.094 17.4699 26.9499 17.4699C27.5264 18.3735 27.8146 19.4277 27.8146 20.6325C27.8146 20.9337 27.8146 21.3855 27.8146 21.5361C27.8146 21.6868 27.8146 21.8374 27.8146 21.988C27.8146 22.5904 28.1029 23.0422 28.6793 23.0422C29.3999 23.0422 29.8323 22.5904 29.8323 21.5361C29.8323 20.0301 28.9676 18.6747 27.2382 17.3193Z" fill="#896BA5"/>
<path d="M26.2293 21.5361C26.2293 20.3313 25.797 18.9759 24.9323 17.4699C24.7882 17.6205 24.644 17.6205 24.4999 17.6205C24.4999 17.9217 24.4999 18.3735 24.4999 18.8253C24.4999 19.7289 24.4999 20.4819 24.3558 20.9337C24.0676 21.6867 23.9235 22.2892 23.9235 22.5904C23.9235 23.1928 24.2117 23.494 24.7882 23.6446C25.797 23.3434 26.2293 22.741 26.2293 21.5361Z" fill="#896BA5"/>
<path d="M26.8058 6.92771C26.5176 7.68072 26.2293 8.28313 25.9411 9.03614C24.7882 9.03614 23.7793 9.03614 22.7705 8.88554C23.9235 7.83133 24.9323 6.62651 25.6529 5.42169C25.6529 5.42169 25.797 5.27108 26.2293 5.27108C26.8058 5.27108 26.9499 4.96988 26.9499 4.81928C26.9499 4.51807 25.797 4.06627 23.4911 3.46386C23.347 5.42169 22.7705 7.22892 21.9058 8.88554C21.4735 8.88554 21.0411 8.88554 20.6088 8.73494C21.0411 10.8434 21.3294 11.8976 21.4735 11.8976C21.6176 11.8976 21.6176 11.8976 21.6176 11.747C21.6176 11.747 21.7617 11.4458 21.9058 11.1446C23.2029 10.8434 24.3558 10.5422 25.2205 10.0904C24.4999 11.5964 23.347 12.9518 22.1941 14.4578C21.4735 14.4578 20.897 14.4578 20.6088 14.3072C20.897 15.2108 21.0411 15.9639 21.3294 16.7169C21.4735 17.3193 21.7617 17.6205 21.9058 17.6205C22.0499 17.6205 22.1941 17.3193 22.3382 16.5663C24.7882 15.9639 26.6617 15.512 27.9587 15.0602C28.1029 15.3614 28.1029 15.6626 28.1029 15.8133C28.1029 16.4157 28.3911 16.8675 28.9676 16.8675C29.6882 16.8675 29.9764 16.4157 29.9764 15.512C29.9764 14.4578 28.9676 13.5542 27.094 12.5C27.094 12.5 26.9499 12.6506 26.8058 12.8012C26.9499 12.9518 27.094 13.253 27.3823 13.7048C27.5264 14.006 27.6705 14.1566 27.6705 14.4578C26.6617 14.4578 25.3646 14.4578 23.4911 14.4578C25.9411 12.5 27.6705 10.6928 28.6793 9.03614C29.544 8.88554 29.9764 8.73494 29.9764 8.58434C29.9764 8.43373 28.9676 7.83133 26.8058 6.92771Z" fill="#896BA5"/>
<path d="M2.30588 23.9458C3.60293 23.9458 4.1794 22.5904 4.1794 20.3313C4.1794 19.5783 4.03528 18.8253 3.89117 18.0723C3.89117 18.0723 3.74705 18.0723 3.45881 18.0723C3.3147 19.5783 2.88234 20.6325 2.16176 21.2349C1.58529 21.8374 1.15294 22.1386 1.15294 22.2892C1.00882 22.4398 1.00882 22.741 1.00882 23.0422C1.15294 23.7952 1.58529 23.9458 2.30588 23.9458Z" fill="#896BA5"/>
<path d="M14.2676 7.68072H20.897C21.0411 7.68072 21.1852 7.53012 21.1852 7.22892C21.0411 6.92771 20.4646 6.1747 19.4558 5.27108C19.1676 5.12048 19.0235 4.96988 18.8794 4.96988C18.8794 4.96988 18.7352 5.12048 18.5911 5.27108C18.1588 5.72289 17.7264 6.3253 17.2941 6.92771H14.2676C12.6823 6.77711 11.5294 6.77711 10.8088 6.4759C10.9529 7.07831 11.097 7.53012 11.2411 7.98193C11.9617 7.68072 12.9706 7.68072 14.2676 7.68072Z" fill="#896BA5"/>
<path d="M14.5558 5.42169C14.9882 6.3253 15.4205 6.62651 15.7088 6.62651C16.1411 6.62651 16.5735 6.3253 16.7176 5.87349C16.8617 5.57229 16.8617 5.27108 16.8617 4.96988C16.7176 3.91566 15.5647 3.31325 13.2588 3.01205C13.2588 3.16265 13.1147 3.31325 13.1147 3.31325C13.6911 3.91566 14.1235 4.66867 14.5558 5.42169Z" fill="#896BA5"/>
<path d="M20.1764 22.1386C20.0323 22.2892 20.0323 22.5904 20.0323 22.8916C20.0323 23.3434 20.4646 23.6446 21.1852 23.6446C22.4823 23.6446 23.2029 22.4398 23.2029 19.8795C23.2029 19.1265 23.0588 18.5241 22.9146 17.9217H22.6264C22.4823 19.4277 22.0499 20.4819 21.3294 21.0843C20.4646 21.5361 20.1764 21.988 20.1764 22.1386Z" fill="#896BA5"/>
<path d="M19.7441 15.8133C19.0235 15.3614 18.5911 15.0602 18.447 15.0602C18.1588 15.0602 17.7264 15.512 17.15 16.4157H13.8353L11.6735 15.6627C11.8176 15.8133 11.8176 16.4157 11.8176 17.3193V19.5783C11.8176 20.6325 11.6735 21.8374 11.6735 22.8916C11.8176 23.0422 12.1058 23.1928 12.5382 23.1928C13.2588 23.1928 13.8353 22.8916 13.8353 22.4398V21.6867H17.2941V22.5904C17.2941 22.8916 17.7264 23.0422 18.3029 23.0422C19.1676 23.0422 19.5999 22.741 19.5999 22.1386C19.5999 21.8374 19.5999 21.2349 19.4558 20.3313V18.0723C19.4558 17.9217 19.7441 17.7711 20.1764 17.4699C20.4646 17.3193 20.6088 17.1687 20.6088 17.0181C20.6088 16.5663 20.3205 16.2651 19.7441 15.8133ZM17.2941 20.7831H14.1235V17.3193H17.2941V20.7831Z" fill="#896BA5"/>
<path d="M19.7441 10.6928C19.8882 10.6928 20.0323 10.5422 20.0323 10.241C19.8882 9.93976 19.4558 9.33735 18.447 8.43374C18.1588 8.28313 18.0147 8.13253 18.0147 8.13253C18.0147 8.13253 17.8705 8.13253 17.7264 8.28313C17.2941 8.73494 17.0058 9.18675 16.5735 9.78916H14.9882C13.2588 9.78916 12.1058 9.78916 11.5294 9.63856C11.6735 10.0904 11.8176 10.5422 11.8176 10.994C12.5382 10.8434 13.547 10.6928 14.8441 10.6928H19.7441Z" fill="#896BA5"/>
<path d="M14.5558 23.6446C15.4205 24.3976 16.1411 25.3012 16.7176 26.506C17.2941 27.7108 17.8705 28.1627 18.1588 28.1627C18.7352 28.1627 19.0235 27.8614 19.3117 27.4096C19.4558 27.1084 19.4558 26.8072 19.4558 26.3554C19.3117 24.6988 17.8705 23.6446 14.8441 23.3434C14.7 23.494 14.7 23.6446 14.5558 23.6446Z" fill="#896BA5"/>
<path d="M14.9882 13.8554H19.8882C20.0323 13.8554 20.1764 13.7048 20.1764 13.4036C20.0323 13.1024 19.5999 12.5 18.5911 11.5964C18.3029 11.4458 18.1588 11.2952 18.1588 11.2952C18.1588 11.2952 18.0147 11.2952 17.8705 11.4458C17.2941 12.0482 17.0058 12.5 16.5735 12.9518H14.9882C13.4029 12.9518 12.25 12.9518 11.5294 12.8012C11.6735 13.253 11.8176 13.7048 11.9617 14.1566C12.6823 14.006 13.6911 13.8554 14.9882 13.8554Z" fill="#896BA5"/>
<path d="M1.58529 14.3072C1.87352 15.3614 2.16176 16.2651 2.30588 16.8675C2.59411 17.6205 2.73823 18.0723 2.88234 18.0723C3.02646 18.0723 3.17058 17.6205 3.3147 16.8675C5.90881 16.2651 7.78233 15.6627 9.07939 15.2108C9.22351 15.6627 9.22351 15.9639 9.22351 16.1145C9.22351 16.7169 9.51174 17.1687 10.0882 17.1687C10.8088 17.1687 11.097 16.7169 11.097 15.9639C11.097 14.9096 10.2323 13.8554 8.3588 12.8012C8.3588 12.8012 8.21468 12.9518 8.07057 13.1024C8.21468 13.1024 8.3588 13.4036 8.64703 13.8554C8.64703 14.006 8.79115 14.1566 8.79115 14.4578C7.92645 14.4578 6.62939 14.6084 4.89999 14.6084C7.34998 12.8012 9.07939 10.994 10.0882 9.18675C11.097 9.03615 11.5294 8.88554 11.5294 8.73494C11.5294 8.43374 10.3764 7.83133 8.21468 6.92771C7.92645 7.68072 7.78233 8.28313 7.34998 9.03615H4.1794C5.33234 7.98193 6.34116 6.77711 6.91763 5.57229C6.91763 5.57229 7.06175 5.42169 7.4941 5.42169C8.07057 5.42169 8.21468 5.12048 8.21468 4.96988C8.21468 4.66868 7.06175 4.21687 4.75587 3.61446C4.75587 5.57229 4.1794 7.37952 3.3147 9.03615H2.01764C2.44999 10.994 2.73823 11.8976 2.88234 11.8976C3.02646 11.8976 3.02646 11.8976 3.02646 11.747C3.02646 11.747 3.17058 11.4458 3.3147 11.1446C4.75587 10.8434 5.90881 10.3916 6.91763 10.0904C6.05293 11.5964 5.0441 12.9518 3.89117 14.4578C2.73823 14.4578 2.01764 14.4578 1.58529 14.3072Z" fill="#896BA5"/>
<path d="M44.0999 13.8554H48.9999C49.144 13.8554 49.2881 13.7048 49.2881 13.4036C49.144 13.1024 48.7116 12.5 47.7028 11.5964C47.4146 11.4458 47.2705 11.2952 47.2705 11.2952C47.2705 11.2952 47.1263 11.2952 46.9822 11.4458C46.5499 12.0482 46.1175 12.5 45.6852 12.9518H44.0999C42.5146 12.9518 41.3617 12.8012 40.6411 12.8012C40.7852 13.253 40.9293 13.7048 41.0734 14.1566C41.794 14.006 42.8028 13.8554 44.0999 13.8554Z" fill="#896BA5"/>
<path d="M48.8557 10.6928C48.9999 10.6928 49.144 10.5422 49.144 10.241C48.9999 9.93976 48.5675 9.33735 47.5587 8.43374C47.2705 8.28313 47.1263 8.13253 47.1263 8.13253C47.1263 8.13253 46.9822 8.13253 46.8381 8.28313C46.4058 8.73494 46.1175 9.18675 45.6852 9.78916H44.0999C42.5146 9.78916 41.3617 9.63856 40.6411 9.48795C40.7852 9.93976 40.9293 10.3916 41.0734 10.8434C41.794 10.6928 42.8028 10.5422 44.0999 10.5422H48.8557V10.6928Z" fill="#896BA5"/>
<path d="M43.6675 23.6446C44.5322 24.3976 45.2528 25.3012 45.8293 26.506C46.4058 27.7108 46.9822 28.1627 47.2705 28.1627C47.8469 28.1627 48.1352 27.8614 48.4234 27.4096C48.5675 27.1084 48.5675 26.8072 48.5675 26.3554C48.4234 24.6988 46.9822 23.6446 43.9558 23.3434C43.8116 23.494 43.8116 23.6446 43.6675 23.6446Z" fill="#896BA5"/>
<path d="M30.697 14.3072C30.9852 15.3614 31.2734 16.2651 31.4176 16.8675C31.7058 17.6205 31.8499 17.9217 31.994 17.9217C32.1381 17.9217 32.2823 17.4699 32.4264 16.7169C35.0205 16.1145 36.894 15.512 38.1911 15.0602C38.3352 15.512 38.3352 15.8133 38.3352 15.9639C38.3352 16.5663 38.6234 17.0181 39.1999 17.0181C39.9205 17.0181 40.2087 16.5663 40.2087 15.8133C40.2087 14.759 39.344 13.7048 37.4705 12.6506C37.4705 12.6506 37.3264 12.8012 37.1822 12.9518C37.3264 13.1024 37.4705 13.4036 37.6146 13.8554C37.7587 14.006 37.7587 14.3072 37.9028 14.4578C37.0381 14.4578 35.7411 14.6084 34.0117 14.6084C36.4617 12.8012 38.1911 10.994 39.344 9.18675C40.2087 9.03615 40.6411 8.88554 40.6411 8.73494C40.6411 8.43374 39.4881 7.83133 37.3264 6.92771C37.0381 7.68072 36.894 8.28313 36.4617 9.03615H33.2911C34.444 7.98193 35.4528 6.77711 36.0293 5.57229C36.0293 5.57229 36.1734 5.42169 36.6058 5.42169C37.1823 5.42169 37.3264 5.12048 37.3264 4.96988C37.3264 4.66868 36.1734 4.21687 33.8675 3.61446C33.7234 5.57229 33.147 7.37952 32.2823 9.03615H30.9852C31.4176 10.994 31.7058 11.8976 31.8499 11.8976C31.994 11.8976 31.994 11.8976 31.994 11.747C31.994 11.747 32.1381 11.4458 32.2823 11.1446C33.7234 10.8434 34.8764 10.3916 35.8852 10.0904C35.0205 11.5964 34.0117 12.9518 32.8587 14.4578C31.8499 14.4578 31.1293 14.4578 30.697 14.3072Z" fill="#896BA5"/>
<path d="M38.047 21.6867C38.047 22.2892 38.3352 22.741 38.9117 22.741C39.6322 22.741 40.0646 22.2892 40.0646 21.2349C40.0646 20.0301 39.1999 18.8253 37.4705 17.6205C37.4705 17.6205 37.3264 17.7711 37.1822 17.7711C37.7587 18.6747 38.047 19.5783 38.1911 20.6325C38.1911 20.9337 38.1911 21.2349 38.1911 21.5361C38.047 21.3855 38.047 21.5361 38.047 21.6867Z" fill="#896BA5"/>
<path d="M43.8116 5.42169C44.244 6.3253 44.6763 6.62651 44.9646 6.62651C45.3969 6.62651 45.8293 6.3253 45.9734 5.87349C46.1175 5.57229 46.1175 5.27108 46.1175 4.96988C45.9734 3.91566 44.6763 3.31325 42.3705 3.01205C42.3705 3.16265 42.2264 3.31325 42.2264 3.31325C42.8028 3.91566 43.3793 4.66867 43.8116 5.42169Z" fill="#896BA5"/>
<path d="M34.5881 22.4398C34.5881 23.0422 34.8764 23.3434 35.3087 23.3434C36.1734 23.3434 36.6058 22.741 36.6058 21.5361C36.6058 20.3313 36.1734 18.9759 35.4528 17.4699C35.3087 17.4699 35.1646 17.6205 35.1646 17.6205C35.1646 17.9217 35.1646 18.3735 35.3087 18.6747C35.3087 19.5783 35.3087 20.3313 35.1646 20.7831C34.7323 21.6867 34.5881 22.2892 34.5881 22.4398Z" fill="#896BA5"/>
<path d="M43.3793 7.68072H50.0087C50.1528 7.68072 50.2969 7.53012 50.2969 7.22892C50.1528 6.92771 49.5763 6.1747 48.5675 5.27108C48.2793 5.12048 48.1352 4.96988 47.991 4.96988C47.991 4.96988 47.8469 5.12048 47.7028 5.27108C47.2705 5.72289 46.8381 6.3253 46.4058 6.92771H43.3793C41.794 6.92771 40.6411 6.77711 39.9205 6.62651C40.0646 7.07831 40.2087 7.53012 40.3528 7.98193C41.0734 7.68072 42.0822 7.68072 43.3793 7.68072Z" fill="#896BA5"/>
<path d="M49.2881 22.1386C49.144 22.2892 49.144 22.5904 49.144 22.8916C49.144 23.3434 49.5763 23.6446 50.2969 23.6446C51.594 23.6446 52.3146 22.4398 52.3146 19.8795C52.3146 19.1265 52.1704 18.5241 52.0263 17.9217H51.7381C51.594 19.4277 51.1616 20.4819 50.441 21.0843C49.7205 21.5361 49.2881 21.988 49.2881 22.1386Z" fill="#896BA5"/>
<path d="M48.8557 15.8133C48.1352 15.2108 47.7028 15.0602 47.5587 15.0602C47.2705 15.0602 46.8381 15.512 46.2616 16.4157H43.0911L40.9293 15.6627C41.0734 15.8133 41.0734 16.4157 41.0734 17.3193V19.5783C41.0734 20.6325 40.9293 21.8374 40.9293 22.8916C41.0734 23.0422 41.3616 23.1928 41.794 23.1928C42.5146 23.1928 42.9469 22.8916 43.0911 22.4398V21.6867H46.2616V22.5904C46.2616 22.8916 46.694 23.0422 47.2705 23.0422C48.1352 23.0422 48.5675 22.741 48.5675 22.1386C48.5675 21.8374 48.5675 21.2349 48.4234 20.3313V18.0723C48.4234 17.9217 48.7116 17.7711 49.144 17.4699C49.4322 17.3193 49.5763 17.1687 49.5763 17.0181C49.7205 16.5663 49.4322 16.2651 48.8557 15.8133ZM46.4058 20.7831H43.2352V17.3193H46.4058V20.7831Z" fill="#896BA5"/>
<path d="M53.1793 22.4398C53.1793 23.0422 53.4675 23.3434 54.044 23.494C54.9087 23.494 55.4851 22.8916 55.4851 21.5361C55.4851 20.3313 55.0528 18.9759 54.1881 17.4699C54.044 17.6205 53.8998 17.6205 53.7557 17.6205C53.7557 17.9217 53.7557 18.3735 53.7557 18.8253C53.7557 19.7289 53.7557 20.4819 53.6116 20.9337C53.3234 21.6867 53.1793 22.1386 53.1793 22.4398Z" fill="#896BA5"/>
<path d="M53.1793 30.8735C53.1793 30.5723 52.891 30.2711 52.4587 30.1205C52.0263 29.9699 51.7381 29.8193 51.7381 29.5181V26.3554C51.7381 26.3554 51.4499 26.3554 51.1616 26.3554C50.7293 28.012 50.441 29.2169 50.1528 29.6687C49.7205 30.4217 48.9999 30.7229 47.991 30.7229H42.6587C41.6499 30.5723 41.2175 30.1205 41.2175 29.2169V26.2048C42.2264 25.9036 42.8028 25.4518 42.8028 25.1506C42.8028 24.8494 41.3617 24.3976 38.4793 23.9458C38.6234 24.5482 38.6234 25.6024 38.6234 27.1084V28.6145C38.6234 31.3253 39.344 32.8313 41.0734 32.9819C41.794 33.1325 43.6675 33.1325 46.5499 33.1325C47.991 33.1325 49.2881 32.9819 50.7293 32.8313C52.3146 32.5301 53.1793 31.7771 53.1793 30.8735Z" fill="#896BA5"/>
<path d="M53.6116 25.1506C54.6204 26.2048 55.341 27.5602 55.7734 29.3675C56.0616 30.8735 56.6381 31.6265 57.3587 31.6265C57.791 31.6265 58.0793 31.4759 58.3675 31.3253C58.7998 31.0241 58.944 30.5723 58.944 29.8193C58.944 28.1626 57.3587 26.506 54.1881 24.6988C53.7557 25 53.7557 25.1506 53.6116 25.1506Z" fill="#896BA5"/>
<path d="M33.4352 20.3313C33.4352 19.5783 33.2911 18.8253 33.147 18.0723C33.147 18.0723 33.0028 18.0723 32.7146 18.0723C32.5705 19.5783 32.1381 20.6325 31.4176 21.2349C30.8411 21.8374 30.4087 22.1386 30.4087 22.2892C30.4087 22.5904 30.2646 22.8916 30.2646 23.1928C30.2646 23.7952 30.697 24.0964 31.4176 24.0964C32.7146 23.9458 33.4352 22.741 33.4352 20.3313Z" fill="#896BA5"/>
<path d="M56.9263 21.988C56.9263 22.5904 57.2145 23.0422 57.791 23.0422C58.5116 23.0422 58.944 22.5904 58.944 21.5361C58.944 20.1807 58.0793 18.8253 56.494 17.4699C56.494 17.4699 56.3498 17.6205 56.2057 17.6205C56.7822 18.5241 56.9263 19.5783 57.0704 20.7831C57.0704 21.0843 57.0704 21.5361 57.0704 21.6867C56.9263 21.6867 56.9263 21.8374 56.9263 21.988Z" fill="#896BA5"/>
<path d="M35.8852 24.6988C35.8852 24.6988 35.7411 24.6988 35.4528 24.6988C35.1646 25.9036 34.7323 26.9578 34.1558 27.5602C33.2911 28.6145 32.5705 29.2169 31.994 29.5181C31.4176 29.9699 31.1293 30.5723 31.1293 31.0241C31.1293 31.6265 31.5617 31.9277 32.4264 31.9277C34.7323 31.7771 35.8852 30.2711 35.8852 27.1084C36.0293 25.9036 35.8852 25.1506 35.8852 24.6988Z" fill="#896BA5"/>
<path d="M55.9175 6.92771C55.6293 7.68072 55.341 8.28313 55.0528 9.03614C53.8999 9.03614 52.891 9.03614 51.8822 9.03614C53.0351 7.98193 54.044 6.77711 54.7646 5.57229C54.7646 5.57229 54.9087 5.42169 55.341 5.42169C55.9175 5.42169 56.0616 5.12048 56.0616 4.96988C56.0616 4.66867 54.9087 4.21687 52.6028 3.61446C52.4587 5.57229 51.8822 7.37952 51.0175 9.03614C50.5852 9.03614 50.1528 9.03614 49.7204 8.88554C50.1528 10.994 50.441 12.0482 50.5851 12.0482C50.7293 12.0482 50.7293 12.0482 50.7293 11.8976C50.7293 11.8976 50.8734 11.5964 51.0175 11.2952C52.3146 10.994 53.4675 10.6928 54.3322 10.241C53.6116 11.747 52.4587 13.1024 51.3057 14.6084C50.5852 14.6084 50.0087 14.6084 49.7204 14.4578C50.0087 15.3614 50.1528 16.1145 50.441 16.8675C50.5852 17.4699 50.8734 17.7711 51.0175 17.7711C51.1616 17.7711 51.3057 17.4699 51.4499 16.7169C53.8998 16.1145 55.7734 15.6627 57.0704 15.2108C57.2145 15.512 57.2145 15.8133 57.2145 15.9639C57.2145 16.5663 57.5028 17.0181 58.0792 17.0181C58.7998 17.0181 59.0881 16.5663 59.0881 15.6626C59.0881 14.6084 58.0793 13.7048 56.2057 12.6506C56.2057 12.6506 56.0616 12.8012 55.9175 12.9518C56.0616 13.1024 56.2057 13.4036 56.494 13.8554C56.6381 14.1566 56.7822 14.3072 56.7822 14.6084C55.7734 14.6084 54.4763 14.6084 52.6028 14.6084C55.0528 12.6506 56.7822 10.8434 57.791 9.18675C58.6557 9.03614 59.0881 8.88554 59.2322 8.73494C59.2322 8.43373 58.0793 7.83133 55.9175 6.92771Z" fill="#896BA5"/>
<path d="M138.497 18.0723H149.161C149.45 18.0723 149.45 17.9217 149.45 17.6205C149.45 17.3193 148.729 16.4157 147.288 15.2108C147 14.9096 146.711 14.759 146.423 14.6084C146.279 14.6084 146.279 14.6084 146.135 14.6084C145.703 14.9096 144.838 15.8133 143.829 17.1687H137.055V11.1446H146.567C146.855 11.1446 147 10.994 147 10.6928C147 10.3916 146.279 9.63855 144.982 8.43373C144.694 8.13253 144.405 7.98193 144.261 7.83133H143.973C143.541 8.13253 142.82 8.88554 141.955 10.0904H137.2V5.72289C137.2 5.57229 137.488 5.42169 138.208 5.12048C138.641 4.96988 138.785 4.81928 138.785 4.66868C138.785 4.36747 138.353 4.06627 137.344 3.91566C136.047 3.61446 134.894 3.46386 133.741 3.31325C133.885 4.51807 134.029 5.57229 134.029 6.77711V9.93976H130.282C127.4 9.93976 125.382 9.78916 124.229 9.63855C124.517 10.241 124.806 10.6928 124.95 11.2952C125.67 10.994 127.544 10.994 130.426 10.994H134.029V17.0181H129.706C126.247 17.0181 123.797 16.8675 122.356 16.7169C122.644 17.3193 122.788 17.7711 123.076 18.3735C123.941 18.2229 126.247 18.0723 129.706 18.0723H132.156C132.011 18.5241 131.723 19.1265 131.435 19.7289C129.85 23.6446 126.391 27.4096 121.203 30.8735C121.347 31.1747 121.491 31.3253 121.491 31.3253C127.544 28.7651 131.723 25.3012 134.029 20.9337V24.247C134.029 28.7651 134.029 31.7771 133.885 33.2831C133.885 33.7349 134.317 34.0361 135.038 34.0361C136.623 34.0361 137.344 33.7349 137.344 33.1325C137.344 31.4759 137.2 28.6145 137.2 24.5482V18.0723H137.632C138.785 21.8374 140.226 24.6988 142.244 26.8072C144.55 29.2169 146.135 30.5723 147.144 30.5723C147.576 30.5723 147.72 30.2711 147.864 29.8193C148.153 28.9157 148.441 28.4639 148.729 28.1627C149.161 27.7108 149.45 27.4096 149.738 27.4096C149.738 27.259 149.738 26.9578 149.882 26.6566C147.432 26.506 145.414 25.753 143.541 24.3976C141.811 23.1928 140.082 21.0843 138.497 18.0723Z" fill="#896BA5"/>
<path d="M177.408 29.8193C177.552 29.5181 177.697 29.0663 177.841 28.6145C178.129 28.1627 178.561 27.7108 179.138 27.4096C179.138 27.259 179.138 27.1084 179.138 26.8072C176.976 26.3554 174.382 25 171.5 22.8916C169.05 21.0843 167.32 18.9759 166.167 16.8675V9.48795H178.417C178.705 9.48795 178.85 9.33735 178.85 9.03615C178.85 8.73494 178.129 7.83133 176.688 6.4759C176.4 6.1747 176.111 6.0241 175.823 5.87349C175.679 5.87349 175.679 5.87349 175.535 5.87349C175.102 6.1747 174.382 7.07831 173.373 8.43373H166.311V5.57229C166.311 5.42169 166.6 5.27108 167.176 4.96988C167.608 4.96988 167.752 4.81928 167.752 4.51807C167.752 4.21687 167.32 3.91566 166.455 3.76506C165.302 3.61446 164.15 3.31325 163.141 3.16265C163.285 4.21687 163.429 5.27108 163.429 6.3253V8.28313H158.817C155.214 8.28313 152.62 8.13253 151.179 7.98193C151.467 8.58434 151.755 9.03615 151.9 9.78916C152.764 9.48795 155.07 9.33735 158.673 9.33735H163.429V16.8675C160.114 22.8916 155.935 27.5602 150.747 30.8735C150.891 31.0241 151.035 31.1747 151.035 31.3253C155.358 29.5181 159.538 26.506 163.429 22.2892V25C163.429 29.2169 163.429 31.9277 163.285 33.2831C163.285 33.7349 163.573 33.8855 164.294 33.8855C165.735 33.8855 166.455 33.5843 166.455 32.9819C166.455 31.4759 166.311 28.7651 166.311 25V18.6747C167.32 20.6325 168.329 22.4398 169.626 24.0964C173.085 28.1627 175.535 30.2711 177.12 30.2711C177.264 30.4217 177.408 30.2711 177.408 29.8193Z" fill="#896BA5"/>
<path d="M175.535 12.6506C175.535 12.5 174.238 11.8976 171.5 10.994C170.923 14.6084 169.914 17.4699 168.617 19.7289C168.761 19.8795 168.905 19.8795 169.194 20.0301C170.491 19.1265 171.644 17.7711 172.652 16.1145C173.517 17.0181 174.238 18.2229 174.814 19.4277C175.247 20.6325 175.679 21.3855 176.111 21.3855C176.544 21.3855 176.832 21.2349 177.12 20.9337C177.408 20.6325 177.552 19.8795 177.552 18.9759C177.408 17.6205 175.967 16.4157 173.085 15.3614C173.373 14.759 173.661 14.1566 173.95 13.5542C175.102 13.4036 175.535 13.1024 175.535 12.6506Z" fill="#896BA5"/>
<path d="M160.402 12.6506C160.402 12.5 159.105 11.8976 156.367 10.994C155.503 15.9639 153.773 20.0301 151.467 23.1928C151.611 23.1928 151.755 23.3434 152.044 23.494C154.205 21.8374 155.935 19.4277 157.52 16.4157C157.664 16.5663 157.664 16.7169 157.808 16.7169C158.097 17.1687 158.385 17.7711 158.529 18.6747C158.673 19.7289 159.105 20.1807 159.682 20.1807C160.114 20.1807 160.547 20.0301 160.691 19.8795C161.123 19.5783 161.267 18.9759 161.267 18.2229C161.267 17.3193 160.691 16.4157 159.394 15.6627C158.961 15.512 158.529 15.2108 158.097 15.0602C158.385 14.4578 158.529 13.8554 158.817 13.253C159.97 13.4036 160.402 13.1024 160.402 12.6506Z" fill="#896BA5"/>
<path d="M92.9556 21.3855C93.8203 19.7289 94.685 17.9217 95.5497 16.1145C102.9 2.10844 109.817 3.76506 112.267 4.51808C115.726 5.8735 117.744 9.78916 114.141 16.1145C114.141 16.1145 121.779 10.3916 115.006 2.25904C108.52 -3.91566 97.2791 3.01205 92.235 16.1145C91.9468 16.7169 91.6586 17.4699 91.3703 18.0723C91.0821 17.4699 90.7939 16.7169 90.5056 16.1145C85.4615 3.01205 74.3645 -3.91566 68.0233 2.25904C61.2498 10.241 68.888 16.1145 68.888 16.1145C65.141 9.63856 67.1586 5.8735 70.6174 4.51808C73.2116 3.76506 79.9851 2.25904 87.335 16.1145C88.1998 17.9217 88.9203 19.7289 89.9292 21.3855C85.0292 31.1747 78.1115 37.6506 73.3557 37.0482C79.9851 38.1024 86.3262 32.5301 91.5145 24.0964C96.7027 32.6807 103.044 38.1024 109.673 37.0482C104.773 37.6506 97.8556 31.0241 92.9556 21.3855Z" fill="#896BA5"/>
<path d="M65.141 21.0843C63.6998 24.247 63.2675 33.5843 72.3469 33.5843C77.2468 33.5843 83.8762 27.7108 86.1821 18.2229C79.6968 32.8313 71.7704 31.1747 68.7439 27.8614C66.8704 25.4518 66.7263 19.1265 68.888 16.1145C68.7439 16.1145 66.5822 17.9217 65.141 21.0843Z" fill="#896BA5"/>
<path d="M113.997 16.1145C116.303 19.1265 116.158 25.4518 114.141 27.8614C110.97 31.1747 103.188 32.8313 96.7027 18.2229C99.0085 27.8615 105.494 33.5843 110.538 33.5843C119.617 33.5843 119.041 24.247 117.744 21.0843C116.303 17.9217 113.997 16.1145 113.997 16.1145Z" fill="#896BA5"/>
<path d="M0 43.6747V43.8253H0.144117C0.288234 43.8253 0.432352 43.8253 0.576469 43.9759C0.720586 43.9759 0.720586 44.1265 0.720586 44.1265C0.720586 44.2771 0.720586 44.4277 0.720586 44.7289V48.6446C0.720586 48.9458 0.720586 49.247 0.576469 49.3976C0.576469 49.6988 0.432352 49.6988 0.144117 49.6988H0V49.8494H2.44999V49.6988H2.30588C2.16176 49.6988 2.01764 49.6988 1.87352 49.5482C1.72941 49.5482 1.72941 49.3976 1.72941 49.3976C1.72941 49.247 1.72941 49.0964 1.72941 48.7952V46.8373H2.73823C2.88234 46.8373 3.02646 46.8373 3.17058 46.9879C3.3147 46.9879 3.3147 47.1385 3.45881 47.2892C3.45881 47.4398 3.60293 47.5904 3.60293 47.741H3.74705V45.6325H3.45881C3.45881 45.9337 3.3147 46.2349 3.17058 46.2349C3.02646 46.3855 2.88234 46.3855 2.59411 46.3855H1.58529V43.9759H2.88234C3.17058 43.9759 3.45881 43.9759 3.60293 44.1265C3.74705 44.1265 3.89117 44.2771 4.03528 44.4277C4.1794 44.5783 4.1794 44.7289 4.32352 45.0301V43.6747H0Z" fill="#896BA5"/>
<path d="M21.0411 43.9759H21.3294C21.6176 43.9759 21.7617 43.9759 21.7617 44.1265C21.9058 44.2771 21.9058 44.4277 21.9058 44.8795V47.4398C21.9058 48.0422 21.9058 48.494 21.7617 48.7952C21.6176 49.0964 21.4735 49.247 21.1852 49.3976C20.897 49.5482 20.6088 49.6988 20.1764 49.6988C19.8882 49.6988 19.5999 49.6988 19.4558 49.5482C19.3117 49.3976 19.1676 49.247 19.0235 49.0964C18.8794 48.9458 18.8794 48.6446 18.7352 48.3434C18.7352 48.0422 18.7352 47.741 18.7352 47.5904V44.8795C18.7352 44.5783 18.7352 44.2771 18.8794 44.1265C19.0235 43.9759 19.1676 43.8253 19.4558 43.8253H19.7441V43.6747H17.2941V43.8253H17.5823C17.8705 43.8253 18.0147 43.8253 18.0147 43.9759C18.1588 44.1265 18.1588 44.2771 18.1588 44.7289V47.1385C18.1588 47.8916 18.1588 48.3434 18.3029 48.6446C18.447 49.0964 18.7352 49.3976 19.0235 49.5482C19.3117 49.8494 19.8882 49.8494 20.4646 49.8494C21.0411 49.8494 21.4735 49.6988 21.9058 49.5482C22.1941 49.247 22.4823 48.9458 22.6264 48.6446C22.7705 48.3434 22.7705 47.8916 22.7705 47.1385V44.5783C22.7705 44.2771 22.7705 43.9759 22.9146 43.9759C23.0588 43.8253 23.2029 43.6747 23.4911 43.6747H21.0411V43.9759Z" fill="#896BA5"/>
<path d="M35.597 43.6747V45.1807H35.7411C35.7411 44.8795 35.8852 44.7289 35.8852 44.5783C36.0293 44.4277 36.1734 44.2771 36.3175 44.2771C36.4617 44.2771 36.6058 44.2771 36.894 44.2771H37.6146V48.9458C37.6146 49.247 37.6146 49.5482 37.4705 49.5482C37.3264 49.6988 37.1822 49.6988 36.894 49.6988H36.7499V49.8494H39.1999V49.6988H39.0558C38.7675 49.6988 38.6234 49.6988 38.6234 49.5482C38.4793 49.3976 38.4793 49.247 38.4793 48.7952V44.1265H39.344C39.6322 44.1265 39.7764 44.1265 39.9205 44.2771C40.0646 44.4277 40.2087 44.4277 40.2087 44.7289C40.2087 44.8795 40.3528 45.0301 40.3528 45.3313V43.8253H35.597V43.6747Z" fill="#896BA5"/>
<path d="M56.9263 43.9759H57.2145C57.5028 43.9759 57.6469 43.9759 57.6469 44.1265C57.791 44.2771 57.791 44.4277 57.791 44.8795V47.4398C57.791 48.0422 57.791 48.494 57.6469 48.7952C57.5028 49.0964 57.3587 49.247 57.0704 49.3976C56.7822 49.5482 56.494 49.6988 56.0616 49.6988C55.7734 49.6988 55.4851 49.6988 55.341 49.5482C55.1969 49.3976 55.0528 49.247 54.9087 49.0964C54.7645 48.9458 54.7646 48.6446 54.6204 48.3434C54.6204 48.0422 54.6204 47.741 54.6204 47.5904V44.8795C54.6204 44.5783 54.6204 44.2771 54.7646 44.1265C54.9087 43.9759 55.0528 43.8253 55.341 43.8253H55.6293V43.6747H53.1793V43.8253H53.4675C53.6116 43.8253 53.8999 43.8253 53.8999 43.9759C54.044 44.1265 54.044 44.2771 54.044 44.7289V47.1385C54.044 47.8916 54.044 48.3434 54.1881 48.6446C54.3322 49.0964 54.6204 49.3976 54.9087 49.5482C55.1969 49.8494 55.7734 49.8494 56.3498 49.8494C56.9263 49.8494 57.3587 49.6988 57.791 49.5482C58.0792 49.247 58.3675 48.9458 58.5116 48.6446C58.6557 48.3434 58.6557 47.8916 58.6557 47.1385V44.5783C58.6557 44.2771 58.6557 43.9759 58.7998 43.9759C58.944 43.8253 59.0881 43.6747 59.3763 43.6747H59.6645H57.6469V43.9759H56.9263Z" fill="#896BA5"/>
<path d="M75.6616 48.6446L74.5086 46.8373C74.941 46.6867 75.3733 46.5361 75.6616 46.2349C75.9498 45.9337 75.9498 45.6325 75.9498 45.1807C75.9498 44.8795 75.8057 44.5783 75.6616 44.2771C75.5174 43.9759 75.2292 43.8253 74.941 43.8253C74.5086 43.8253 74.0763 43.6747 73.4998 43.6747H71.338V43.8253H71.6263C71.9145 43.8253 72.0586 43.8253 72.0586 43.9759C72.2027 44.1265 72.2027 44.2771 72.2027 44.7289V48.6446C72.2027 48.9458 72.2027 49.247 72.0586 49.247C71.9145 49.6988 71.7704 49.6988 71.6263 49.6988H71.338V49.8494H73.788V49.6988H73.4998C73.2116 49.6988 73.0674 49.6988 73.0674 49.5482C72.9233 49.3976 72.9233 49.247 72.9233 48.7952V46.9879H73.2116C73.3557 46.9879 73.3557 46.9879 73.4998 46.9879L75.5174 49.8494H77.1027V49.6988C76.8145 49.6988 76.5263 49.5482 76.3821 49.3976C76.0939 49.3976 75.9498 49.0964 75.6616 48.6446ZM73.2116 46.6867C73.0674 46.6867 73.0674 46.6867 72.9233 46.6867V44.1265C73.2116 44.1265 73.3557 43.9759 73.6439 43.9759C74.0763 43.9759 74.3645 44.1265 74.5086 44.2771C74.7969 44.5783 74.7969 44.8795 74.7969 45.1807C74.7969 45.6325 74.6527 45.9337 74.3645 46.0843C74.2204 46.5361 73.788 46.6867 73.2116 46.6867Z" fill="#896BA5"/>
<path d="M93.5321 49.247C93.388 49.3976 93.2439 49.5482 93.0997 49.5482C92.9556 49.5482 92.6674 49.5482 92.3792 49.5482H91.3703C91.2262 49.5482 91.0821 49.5482 91.0821 49.5482L90.938 49.3976C90.938 49.3976 90.938 49.0964 90.938 48.9458V46.988H92.235C92.5233 46.988 92.6674 46.988 92.8115 47.1386C92.9556 47.1386 92.9556 47.2892 93.0997 47.4398C93.0997 47.5904 93.2439 47.741 93.2439 48.0422H93.388V45.9337H93.2439C93.2439 46.2349 93.0997 46.5361 92.9556 46.6867C92.8115 46.8374 92.6674 46.8374 92.235 46.8374H90.938V44.4277H92.5233C92.8115 44.4277 92.9556 44.4277 93.0997 44.4277C93.2439 44.4277 93.388 44.5783 93.388 44.7289C93.388 44.8795 93.5321 45.0301 93.5321 45.3313H93.6762V43.9759H89.3527V44.1265H89.4968C89.785 44.1265 89.9292 44.1265 90.0733 44.2771C90.2174 44.4277 90.2174 44.5783 90.2174 45.0301V49.0964C90.2174 49.3976 90.2174 49.5482 90.2174 49.6988C90.2174 49.8494 90.0733 49.8494 90.0733 49.8494C89.9292 49.8494 89.785 50 89.6409 50H89.3527V50.1506H93.8203L94.2527 48.6446H94.1086C93.9644 48.7952 93.8203 48.9458 93.5321 49.247Z" fill="#896BA5"/>
<path d="M125.526 49.0964C125.382 49.247 125.238 49.3976 125.094 49.3976C124.95 49.3976 124.661 49.5482 124.085 49.5482H123.653C123.22 49.5482 123.076 49.5482 122.932 49.5482L122.788 49.3976C122.788 49.247 122.788 49.0964 122.788 48.9458V45.0301C122.788 44.7289 122.788 44.4277 122.788 44.2771C122.788 44.1265 122.932 44.1265 123.076 43.9759C123.22 43.9759 123.364 43.8253 123.797 43.8253V43.6747H121.058V43.8253H121.347C121.635 43.8253 121.779 43.8253 121.779 43.9759C121.923 44.1265 121.923 44.2771 121.923 44.7289V48.6446C121.923 48.9458 121.923 49.247 121.779 49.247C121.779 49.6988 121.491 49.6988 121.347 49.6988H121.058V49.8494H125.526L125.958 48.1928H125.814C125.814 48.494 125.67 48.7952 125.526 49.0964Z" fill="#896BA5"/>
<path d="M141.523 43.5241C140.803 43.5241 140.082 43.8253 139.505 44.2771C138.929 44.8795 138.497 45.6325 138.497 46.6867C138.497 47.5904 138.785 48.494 139.361 49.0964C139.938 49.6988 140.514 50 141.379 50C142.1 50 142.82 49.6988 143.397 49.0964C143.973 48.494 144.261 47.741 144.261 46.8373C144.261 45.9337 143.973 45.1807 143.397 44.5783C142.964 43.8253 142.388 43.5241 141.523 43.5241ZM142.82 49.0964C142.532 49.5482 141.955 49.8494 141.523 49.8494C140.947 49.8494 140.658 49.6988 140.226 49.247C139.794 48.6446 139.65 47.8916 139.65 46.988C139.65 45.9337 139.794 45.3313 140.226 44.7289C140.514 44.2771 140.947 44.1265 141.523 44.1265C142.1 44.1265 142.532 44.2771 142.82 44.7289C143.253 45.1807 143.397 46.0843 143.397 47.1385C143.397 47.8916 143.253 48.6446 142.82 49.0964Z" fill="#896BA5"/>
<path d="M161.267 43.9759C161.555 43.9759 161.7 44.1265 161.7 44.1265C161.844 44.2771 161.844 44.2771 161.844 44.4277C161.844 44.5783 161.844 44.8795 161.7 45.1807L160.402 48.7952L158.961 45.1807C158.817 44.8795 158.817 44.5783 158.817 44.4277C158.817 44.2771 158.817 44.2771 158.961 44.1265C159.105 44.1265 159.25 43.9759 159.538 43.9759V43.6747H157.232V43.8253C157.376 43.8253 157.52 43.8253 157.664 43.9759C157.808 43.9759 157.808 44.1265 157.952 44.1265C157.952 44.1265 158.097 44.2771 158.241 44.5783L160.402 49.8494H160.547L162.564 44.5783C162.708 44.2771 162.852 43.9759 162.997 43.8253C163.141 43.6747 163.285 43.6747 163.429 43.6747H161.7V43.9759H161.267Z" fill="#896BA5"/>
<path d="M180.291 48.3434C180.147 48.7952 179.858 48.9458 179.714 49.247C179.57 49.3976 179.426 49.5482 179.282 49.5482C179.138 49.5482 178.85 49.5482 178.561 49.5482H177.552C177.408 49.5482 177.264 49.5482 177.264 49.5482L177.12 49.3976C177.12 49.3976 177.12 49.0964 177.12 48.9458V46.988H178.417C178.705 46.988 178.85 46.988 178.994 47.1386C179.138 47.1386 179.138 47.2892 179.282 47.4398C179.282 47.5904 179.426 47.741 179.426 48.0422H179.57V45.9337H179.426C179.426 46.2349 179.282 46.5361 179.138 46.6867C178.994 46.8374 178.85 46.8374 178.417 46.8374H177.12V44.4277H178.705C178.994 44.4277 179.138 44.4277 179.282 44.4277C179.426 44.4277 179.57 44.5783 179.57 44.7289C179.57 44.8795 179.714 45.0301 179.714 45.3313H179.858V43.9759H175.391V44.1265H175.535C175.823 44.1265 175.967 44.1265 176.111 44.2771C176.111 44.4277 176.255 44.5783 176.255 45.0301V49.0964C176.255 49.3976 176.255 49.5482 176.255 49.6988C176.255 49.8494 176.111 49.8494 176.111 49.8494C175.967 49.8494 175.823 50 175.679 50H175.535V50.1506H180.002L180.435 48.6446H180.291V48.3434Z" fill="#896BA5"/>
</g>
<defs>
<clipPath id="clip0_77_412">
<rect width="180.435" height="50" fill="white"/>
</clipPath>
</defs>
</svg>
