<?xml version="1.0" encoding="utf-8"?>
<!-- Generator: Adobe Illustrator 25.0.0, SVG Export Plug-In . SVG Version: 6.00 Build 0)  -->
<svg version="1.1" id="圖層_1" xmlns="http://www.w3.org/2000/svg" xmlns:xlink="http://www.w3.org/1999/xlink" x="0px" y="0px"
	 viewBox="0 0 50 50" style="enable-background:new 0 0 50 50;" xml:space="preserve">
<style type="text/css">
	.st0{fill:#FFFFFF;}
	.st1{fill:none;}
	.st2{fill:url(#user-circle-solid_2_);}
</style>
<path class="st0" d="M30.2,24c1.7-1.4,2.8-3.5,2.8-5.9c0-4.2-3.5-7.7-7.9-7.7c-4.3,0-7.9,3.4-7.9,7.7c0,2.4,1.1,4.4,2.8,5.9
	c-3.2,1.7-5.4,5.1-5.4,8.9v6.7h20.8v-6.7C35.5,29.1,33.4,25.7,30.2,24z"/>
<g id="Group_2171_1_" transform="translate(-56 -382)">
	<rect id="Rectangle_1129_1_" x="31.2" y="357.2" class="st1" width="99.6" height="99.6"/>
</g>
<linearGradient id="user-circle-solid_2_" gradientUnits="userSpaceOnUse" x1="0.5896" y1="25" x2="49.4103" y2="25">
	<stop  offset="0" style="stop-color:#BB99C6"/>
	<stop  offset="1" style="stop-color:#F19BB4"/>
</linearGradient>
<path id="user-circle-solid_1_" class="st2" d="M25,0.6C11.5,0.6,0.6,11.5,0.6,25s11,24.4,24.4,24.4s24.4-11,24.4-24.4l0,0
	C49.4,11.5,38.5,0.6,25,0.6L25,0.6z M25,10.1c4.7,0,8.7,4,8.7,8.7s-4,8.7-8.7,8.7s-8.7-4-8.7-8.7S20.3,10.1,25,10.1L25,10.1z
	 M25,43.9c-5.5,0-10.7-2.5-14.4-6.7c2-3.5,5.7-6,9.7-6c0.2,0,0.5,0,0.7,0c1.2,0.5,2.7,0.7,4,0.7c1.2,0,2.7-0.2,4-0.7
	c0.2,0,0.5,0,0.7,0c4,0,7.7,2.2,9.7,6C36,41.4,30.5,43.9,25,43.9z"/>
</svg>
