<?xml version="1.0" encoding="utf-8"?>
<!-- Generator: Adobe Illustrator 25.1.0, SVG Export Plug-In . SVG Version: 6.00 Build 0)  -->
<svg version="1.1" id="Layer_1" xmlns="http://www.w3.org/2000/svg" xmlns:xlink="http://www.w3.org/1999/xlink" x="0px" y="0px"
	 viewBox="0 0 300 300" style="enable-background:new 0 0 300 300;" xml:space="preserve">
<g>
	<g>
		<g>
			<path d="M150,161.5c-8.6,0-15.6,7-15.6,15.6c0,5.8,3.1,10.8,7.8,13.5v17.3h15.6v-17.3c4.7-2.7,7.8-7.7,7.8-13.5
				C165.6,168.5,158.6,161.5,150,161.5z"/>
			<path d="M150,85.8c-13.1,0-23.8,10.7-23.8,23.8v25.3h47.5v-25.3C173.8,96.5,163.1,85.8,150,85.8z"/>
			<path d="M150,0C67.2,0,0,67.2,0,150c0,82.8,67.2,150,150,150s150-67.2,150-150C300,67.2,232.8,0,150,0z M196.1,227.1h-92.2
				c-9.7,0-17.6-7.9-17.6-17.6v-56.9c0-8.5,6-15.6,14-17.3v-25.7c0-27.4,22.3-49.7,49.7-49.7c27.4,0,49.7,22.3,49.7,49.7v25.7
				c8,1.7,14,8.8,14,17.3v56.9h0C213.7,219.2,205.8,227.1,196.1,227.1z"/>
		</g>
	</g>
</g>
</svg>
