<?xml version="1.0" encoding="utf-8"?>
<!-- Generator: Adobe Illustrator 25.1.0, SVG Export Plug-In . SVG Version: 6.00 Build 0)  -->
<svg version="1.1" id="Capa_1" xmlns="http://www.w3.org/2000/svg" xmlns:xlink="http://www.w3.org/1999/xlink" x="0px" y="0px"
	 viewBox="0 0 216 216" style="enable-background:new 0 0 216 216;" xml:space="preserve">
<path d="M108,0C48.4,0,0,48.4,0,108s48.4,108,108,108s108-48.4,108-108S167.6,0,108,0z M60.1,121.9c-2.6,0-4.6-2.1-4.6-4.6V77.1
	c0-2.6,2.1-4.6,4.6-4.6c2.6,0,4.6,2.1,4.6,4.6v40.2C64.7,119.8,62.7,121.9,60.1,121.9z M112.6,121.9c-2.6,0-4.6-2.1-4.6-4.6V77.1
	c0-2.6,2.1-4.6,4.6-4.6c2.6,0,4.6,2.1,4.6,4.6v40.2C117.3,119.8,115.2,121.9,112.6,121.9z M95.3,111.9c-1.6,0-3.2-0.8-4-2.3
	c-1.3-2.2-0.5-5,1.7-6.3l34.8-20.1c2.2-1.3,5.1-0.5,6.3,1.7c1.3,2.2,0.5,5-1.7,6.3l-34.8,20.1C96.8,111.7,96,111.9,95.3,111.9z
	 M130,111.9c-0.8,0-1.6-0.2-2.3-0.6L92.9,91.2c-2.2-1.3-3-4.1-1.7-6.3c1.3-2.2,4.1-3,6.3-1.7l34.8,20.1c2.2,1.3,3,4.1,1.7,6.3
	C133.2,111,131.6,111.9,130,111.9z M42.7,111.9c-1.6,0-3.2-0.8-4-2.3c-1.3-2.2-0.5-5,1.7-6.3l34.8-20.1c2.2-1.3,5-0.5,6.3,1.7
	c1.3,2.2,0.5,5-1.7,6.3L45,111.2C44.3,111.7,43.5,111.9,42.7,111.9z M77.5,111.9c-0.8,0-1.6-0.2-2.3-0.6L40.4,91.2
	c-2.2-1.3-3-4.1-1.7-6.3c1.3-2.2,4.1-3,6.3-1.7l34.8,20.1c2.2,1.3,3,4.1,1.7,6.3C80.7,111,79.1,111.9,77.5,111.9z M165.2,121.9
	c-2.6,0-4.6-2.1-4.6-4.6V77.1c0-2.6,2.1-4.6,4.6-4.6s4.6,2.1,4.6,4.6v40.2C169.8,119.8,167.7,121.9,165.2,121.9z M147.8,111.9
	c-1.6,0-3.2-0.8-4-2.3c-1.3-2.2-0.5-5,1.7-6.3l34.8-20.1c2.2-1.3,5.1-0.5,6.3,1.7c1.3,2.2,0.5,5-1.7,6.3l-34.8,20.1
	C149.4,111.7,148.6,111.9,147.8,111.9z M182.5,111.9c-0.8,0-1.6-0.2-2.3-0.6l-34.8-20.1c-2.2-1.3-3-4.1-1.7-6.3
	c1.3-2.2,4.1-3,6.3-1.7l34.8,20.1c2.2,1.3,3,4.1,1.7,6.3C185.7,111,184.2,111.9,182.5,111.9z M77.1,143.5h-34
	c-2.6,0-4.6-2.1-4.6-4.6c0-2.6,2.1-4.6,4.6-4.6h34c2.6,0,4.6,2.1,4.6,4.6C81.7,141.5,79.7,143.5,77.1,143.5z M129.6,143.5h-34
	c-2.6,0-4.6-2.1-4.6-4.6c0-2.6,2.1-4.6,4.6-4.6h34c2.6,0,4.6,2.1,4.6,4.6C134.3,141.5,132.2,143.5,129.6,143.5z M182.2,143.5h-34
	c-2.6,0-4.6-2.1-4.6-4.6c0-2.6,2.1-4.6,4.6-4.6h34c2.6,0,4.6,2.1,4.6,4.6C186.8,141.5,184.7,143.5,182.2,143.5z"/>
</svg>
