<?xml version="1.0" encoding="utf-8"?>
<!-- Generator: Adobe Illustrator 25.1.0, SVG Export Plug-In . SVG Version: 6.00 Build 0)  -->
<svg version="1.1" id="bold" xmlns="http://www.w3.org/2000/svg" xmlns:xlink="http://www.w3.org/1999/xlink" x="0px" y="0px"
	 viewBox="0 0 512 512" style="enable-background:new 0 0 512 512;" xml:space="preserve">
<path d="M261.3,42.7h-23.5C230.8,18.1,208.2,0,181.3,0s-49.5,18.1-56.5,42.7h-23.5c-8.7,0-16,7.3-16,16v32
	c0,20.5,16.9,37.3,37.3,37.3H240c20.5,0,37.3-16.9,37.3-37.3v-32C277.3,49.9,270.1,42.7,261.3,42.7z"/>
<path d="M304,64h-5.3v26.7c0,32.4-26.2,58.7-58.7,58.7H122.7c-32.4,0-58.7-26.2-58.7-58.7V64h-5.3C26.2,64,0,90.2,0,122.7v266.7
	C0,421.8,26.2,448,58.7,448h173.7c-15.8-21.5-26-46.9-28.8-74.7H80c-8.7,0-16-7.3-16-16c0-8.7,7.3-16,16-16h123.5
	c1.3-13,4.3-25.6,9-37.3H80c-8.7,0-16-7.3-16-16s7.3-16,16-16h148.5c9.4-14.3,21.3-27.1,34.8-37.3H80c-8.7,0-16-7.3-16-16
	c0-8.7,7.3-16,16-16h202.7c7.3,0,13.7,5.1,15.4,11.9c18.3-7.7,38.2-11.9,59.3-11.9c1.7,0,3.6,0,5.3,0.2v-80.2
	C362.7,90.2,336.4,64,304,64z"/>
<path d="M357.3,469.3c-61.8,0-112-50.2-112-112s50.2-112,112-112s112,50.2,112,112S419.1,469.3,357.3,469.3z M357.3,288
	c-38.2,0-69.3,31.1-69.3,69.3s31.1,69.3,69.3,69.3s69.3-31.1,69.3-69.3S395.6,288,357.3,288z"/>
<path d="M490.7,512c-5.5,0-10.9-2.1-15.1-6.3l-69.3-69.3c-8.3-8.3-8.3-21.8,0-30.2c8.3-8.3,21.8-8.3,30.2,0l69.3,69.3
	c8.3,8.3,8.3,21.8,0,30.2C501.6,509.9,496.1,512,490.7,512L490.7,512z"/>
</svg>
