<svg width="125" height="46" viewBox="0 0 125 46" fill="none" xmlns="http://www.w3.org/2000/svg">
<path d="M51.8259 5.80551C49.8566 3.17844 47.0748 1.29972 43.9274 0.471164C40.7799 -0.357391 37.4496 -0.0876861 34.4713 1.23695C31.8056 2.40497 29.4281 4.37424 27.5 6.98759C25.5719 4.36785 23.1944 2.39858 20.5287 1.23695C17.5504 -0.0876861 14.2201 -0.357391 11.0726 0.471164C7.92519 1.29972 5.1434 3.17844 3.17414 5.80551C1.09748 8.56837 0 12.0213 0 15.7899C0 21.2134 3.18547 27.1634 9.46705 33.4814C14.5857 38.6276 20.6344 42.8422 23.7834 44.8958C24.8929 45.6168 26.1827 46 27.5 46C28.8173 46 30.1071 45.6168 31.2166 44.8958C34.363 42.8422 40.4143 38.6276 45.533 33.4814C51.8145 27.1659 55 21.2134 55 15.7899C55 12.0213 53.9025 8.56837 51.8259 5.80551Z" fill="white"/>
<path d="M121.826 5.80551C119.857 3.17844 117.075 1.29972 113.927 0.471164C110.78 -0.357391 107.45 -0.0876861 104.471 1.23695C101.806 2.40497 99.4281 4.37424 97.5 6.98759C95.5719 4.36785 93.1944 2.39858 90.5287 1.23695C87.5504 -0.0876861 84.2201 -0.357391 81.0726 0.471164C77.9252 1.29972 75.1434 3.17844 73.1741 5.80551C71.0975 8.56837 70 12.0213 70 15.7899C70 21.2134 73.1855 27.1634 79.467 33.4814C84.5857 38.6276 90.6344 42.8422 93.7834 44.8958C94.8929 45.6168 96.1827 46 97.5 46C98.8173 46 100.107 45.6168 101.217 44.8958C104.363 42.8422 110.414 38.6276 115.533 33.4814C121.815 27.1659 125 21.2134 125 15.7899C125 12.0213 123.903 8.56837 121.826 5.80551Z" fill="white"/>
</svg>
