<svg width="59" height="59" viewBox="0 0 59 59" fill="none" xmlns="http://www.w3.org/2000/svg">
<circle cx="29.5" cy="29.5" r="29.5" fill="#BE95CF"/>
<path d="M30.131 11.8008C35.3835 11.8008 39.3149 13.4388 41.925 16.7148C44.5674 19.959 45.8885 23.9029 45.8885 28.5466C45.8885 30.8048 45.5985 32.904 45.0185 34.8442C44.4385 36.7525 43.6006 38.4382 42.505 39.9013L45.5502 43.0501L40.7166 47.2008L37.5264 44.0043C36.463 44.5132 35.303 44.9108 34.0462 45.197C32.8217 45.4833 31.5167 45.6264 30.131 45.6264C24.9108 45.6264 20.9794 44.0043 18.3371 40.7601C15.7269 37.4841 14.4219 33.5242 14.4219 28.8806C14.4219 23.887 15.8236 19.8 18.6271 16.6194C21.4306 13.4388 25.2652 11.8326 30.131 11.8008ZM30.0827 39.0903C30.4372 39.0903 30.7916 39.0744 31.1461 39.0426C31.5328 38.979 31.8872 38.8835 32.2095 38.7563L28.1976 34.701L33.4662 30.4072L36.8497 33.9854C37.1075 33.2857 37.3009 32.4746 37.4298 31.5523C37.5909 30.6299 37.6714 29.628 37.6714 28.5466C37.6714 25.5887 37.0753 23.1555 35.883 21.2471C34.7229 19.3388 32.8379 18.3846 30.2277 18.3846C27.9076 18.3846 26.0547 19.3388 24.6691 21.2471C23.2835 23.1555 22.5906 25.6841 22.5906 28.8329C22.5906 31.7908 23.1707 34.2399 24.3307 36.18C25.523 38.1202 27.4403 39.0903 30.0827 39.0903Z" fill="white"/>
</svg>
