<svg width="32" height="32" viewBox="0 0 32 32" fill="none" xmlns="http://www.w3.org/2000/svg">
<path d="M32 16C32 24.84 24.84 32 16 32C7.16 32 0 24.84 0 16C0 7.16 7.16 0 16 0C24.84 0 32 7.16 32 16Z" fill="#14BB00"/>
<path d="M26.6698 15.0684C26.6698 10.2884 21.8798 6.39844 15.9898 6.39844C10.0998 6.39844 5.30981 10.2884 5.30981 15.0684C5.30981 19.3584 9.10982 22.9384 14.2398 23.6184C14.5898 23.6984 15.0598 23.8484 15.1798 24.1484C15.2898 24.4184 15.2498 24.8384 15.2098 25.1184C15.2098 25.1184 15.0798 25.8684 15.0598 26.0284C15.0098 26.2984 14.8498 27.0884 15.9898 26.6084C17.1298 26.1284 22.1398 22.9884 24.3798 20.4084C25.9298 18.6984 26.6698 16.9784 26.6698 15.0684Z" fill="white"/>
<path d="M23.1205 17.8315C23.2305 17.8315 23.3205 17.7415 23.3205 17.6315V16.8715C23.3205 16.7615 23.2305 16.6715 23.1205 16.6715H21.0803V15.8815H23.1205C23.2305 15.8815 23.3205 15.7915 23.3205 15.6815V14.9215C23.3205 14.8115 23.2305 14.7215 23.1205 14.7215H21.0803V13.9315H23.1205C23.2305 13.9315 23.3205 13.8415 23.3205 13.7315V12.9715C23.3205 12.8615 23.2305 12.7715 23.1205 12.7715H20.1202C20.0102 12.7715 19.9202 12.8615 19.9202 12.9715V17.6215C19.9202 17.7315 20.0102 17.8215 20.1202 17.8215H23.1205V17.8315Z" fill="#14BB00"/>
<path d="M12.0201 17.8315C12.1301 17.8315 12.2201 17.7415 12.2201 17.6315V16.8715C12.2201 16.7615 12.1301 16.6715 12.0201 16.6715H9.97993V12.9715C9.97993 12.8615 9.88992 12.7715 9.77991 12.7715H9.01984C8.90983 12.7715 8.81982 12.8615 8.81982 12.9715V17.6315C8.81982 17.7415 8.90983 17.8315 9.01984 17.8315H12.0201Z" fill="#14BB00"/>
<path d="M13.82 12.7598H13.0599C12.9499 12.7598 12.8599 12.8498 12.8599 12.9598V17.6198C12.8599 17.7298 12.9499 17.8198 13.0599 17.8198H13.82C13.93 17.8198 14.02 17.7298 14.02 17.6198V12.9598C14.03 12.8498 13.94 12.7598 13.82 12.7598Z" fill="#14BB00"/>
<path d="M18.9804 12.7598H18.2203C18.1103 12.7598 18.0203 12.8498 18.0203 12.9598V15.7298L15.8901 12.8498C15.8901 12.8398 15.8801 12.8398 15.8701 12.8298L15.8601 12.8198L15.8501 12.8098C15.8501 12.8098 15.8501 12.8098 15.8401 12.8098C15.8401 12.8098 15.8301 12.8098 15.8301 12.7998C15.8301 12.7998 15.8301 12.7998 15.8201 12.7998C15.8201 12.7998 15.8101 12.7998 15.8101 12.7898C15.8101 12.7898 15.8101 12.7898 15.8001 12.7898H15.7901C15.7901 12.7898 15.7901 12.7898 15.7801 12.7898H15.7701C15.7701 12.7898 15.7701 12.7898 15.7601 12.7898H15.7501H15.7401H15.7301H15.7201C15.7201 12.7898 15.7201 12.7898 15.7101 12.7898H14.96C14.85 12.7898 14.76 12.8798 14.76 12.9898V17.6498C14.76 17.7598 14.85 17.8498 14.96 17.8498H15.7201C15.8301 17.8498 15.9201 17.7598 15.9201 17.6498V14.8798L18.0603 17.7598C18.0703 17.7798 18.0903 17.7998 18.1103 17.8098L18.1203 17.8198C18.1203 17.8198 18.1203 17.8198 18.1303 17.8198H18.1403H18.1503C18.1503 17.8198 18.1503 17.8198 18.1603 17.8198H18.1703C18.1903 17.8198 18.2003 17.8298 18.2203 17.8298H18.9704C19.0804 17.8298 19.1704 17.7398 19.1704 17.6298V12.9698C19.1804 12.8498 19.0904 12.7598 18.9804 12.7598Z" fill="#14BB00"/>
</svg>
