<svg width="91" height="63" viewBox="0 0 91 63" fill="none" xmlns="http://www.w3.org/2000/svg">
<path d="M10.5489 7.63388C14.9028 6.3731 26.3003 3.83472 38.656 27.134C40.1017 30.1767 41.3289 33.2026 43.01 35.9932C34.7728 52.4506 23.14 63.3438 15.155 62.3184C26.3003 64.0835 36.9582 54.72 45.6828 40.5488C54.4075 54.9722 65.0653 64.1003 76.2107 62.3184C67.9735 63.327 56.3407 52.1985 48.1035 35.9932C49.5492 33.2026 51.0118 30.1767 52.4575 27.134C64.8132 3.58256 76.446 6.3731 80.5646 7.63388C86.381 9.92011 89.7767 16.493 83.7081 27.134C83.7081 27.134 96.5513 17.5184 85.1538 3.83472C74.2438 -6.53735 55.3489 5.0955 46.8764 27.134C46.3889 28.1427 45.9014 29.4203 45.4307 30.4289C44.9432 29.4203 44.4557 28.1427 43.985 27.134C35.5125 5.11231 16.8529 -6.53735 6.19501 3.83472C-5.18568 17.2495 7.64071 27.134 7.64071 27.134C1.35359 16.2409 4.7325 9.92011 10.5489 7.63388Z" fill="#896BA5"/>
<path d="M13.4564 56.5007C21.6936 56.5007 32.8389 46.633 36.7221 30.6798C25.8121 55.2399 12.4982 52.4494 7.40467 46.8851C4.26111 42.8338 4.00896 32.2096 7.64002 27.1328C7.40467 27.1328 3.7568 30.1755 1.33609 35.4876C-1.08462 40.7997 -1.80747 56.5007 13.4564 56.5007Z" fill="#896BA5"/>
<path d="M83.4718 27.1328C87.355 32.1928 87.1028 42.8338 83.7071 46.8851C78.3782 52.4494 65.2997 55.2399 54.3896 30.6798C58.2729 46.8851 69.1661 56.5007 77.6554 56.5007C92.9193 56.5007 91.9443 40.7997 89.7757 35.4876C87.355 30.1755 83.4718 27.1328 83.4718 27.1328Z" fill="#896BA5"/>
</svg>
